%TF.GenerationSoftware,KiCad,Pcbnew,8.0.1*%
%TF.CreationDate,2025-01-31T20:34:05-05:00*%
%TF.ProjectId,brake control module,6272616b-6520-4636-9f6e-74726f6c206d,rev?*%
%TF.SameCoordinates,Original*%
%TF.FileFunction,Soldermask,Bot*%
%TF.FilePolarity,Negative*%
%FSLAX46Y46*%
G04 Gerber Fmt 4.6, Leading zero omitted, Abs format (unit mm)*
G04 Created by KiCad (PCBNEW 8.0.1) date 2025-01-31 20:34:05*
%MOMM*%
%LPD*%
G01*
G04 APERTURE LIST*
G04 Aperture macros list*
%AMRoundRect*
0 Rectangle with rounded corners*
0 $1 Rounding radius*
0 $2 $3 $4 $5 $6 $7 $8 $9 X,Y pos of 4 corners*
0 Add a 4 corners polygon primitive as box body*
4,1,4,$2,$3,$4,$5,$6,$7,$8,$9,$2,$3,0*
0 Add four circle primitives for the rounded corners*
1,1,$1+$1,$2,$3*
1,1,$1+$1,$4,$5*
1,1,$1+$1,$6,$7*
1,1,$1+$1,$8,$9*
0 Add four rect primitives between the rounded corners*
20,1,$1+$1,$2,$3,$4,$5,0*
20,1,$1+$1,$4,$5,$6,$7,0*
20,1,$1+$1,$6,$7,$8,$9,0*
20,1,$1+$1,$8,$9,$2,$3,0*%
G04 Aperture macros list end*
%ADD10C,3.200000*%
%ADD11RoundRect,0.150000X0.825000X0.150000X-0.825000X0.150000X-0.825000X-0.150000X0.825000X-0.150000X0*%
%ADD12RoundRect,0.150000X0.150000X-0.825000X0.150000X0.825000X-0.150000X0.825000X-0.150000X-0.825000X0*%
%ADD13RoundRect,0.250000X-0.262500X-0.450000X0.262500X-0.450000X0.262500X0.450000X-0.262500X0.450000X0*%
%ADD14RoundRect,0.225000X-0.250000X0.225000X-0.250000X-0.225000X0.250000X-0.225000X0.250000X0.225000X0*%
%ADD15C,1.600000*%
%ADD16C,2.500000*%
%ADD17RoundRect,0.250000X0.300000X-0.300000X0.300000X0.300000X-0.300000X0.300000X-0.300000X-0.300000X0*%
%ADD18C,2.800000*%
%ADD19C,2.000000*%
%ADD20R,1.700000X1.700000*%
%ADD21O,1.700000X1.700000*%
%ADD22RoundRect,0.250000X-0.312500X-0.625000X0.312500X-0.625000X0.312500X0.625000X-0.312500X0.625000X0*%
%ADD23RoundRect,0.250000X0.450000X-0.262500X0.450000X0.262500X-0.450000X0.262500X-0.450000X-0.262500X0*%
%ADD24RoundRect,0.150000X0.662500X0.150000X-0.662500X0.150000X-0.662500X-0.150000X0.662500X-0.150000X0*%
%ADD25RoundRect,0.250000X-0.450000X0.262500X-0.450000X-0.262500X0.450000X-0.262500X0.450000X0.262500X0*%
%ADD26RoundRect,0.250000X0.262500X0.450000X-0.262500X0.450000X-0.262500X-0.450000X0.262500X-0.450000X0*%
%ADD27RoundRect,0.250000X-0.300000X-0.300000X0.300000X-0.300000X0.300000X0.300000X-0.300000X0.300000X0*%
%ADD28RoundRect,0.250000X0.300000X0.300000X-0.300000X0.300000X-0.300000X-0.300000X0.300000X-0.300000X0*%
%ADD29RoundRect,0.150000X0.150000X-0.662500X0.150000X0.662500X-0.150000X0.662500X-0.150000X-0.662500X0*%
%ADD30RoundRect,0.150000X-0.150000X0.662500X-0.150000X-0.662500X0.150000X-0.662500X0.150000X0.662500X0*%
%ADD31RoundRect,0.150000X-0.150000X0.825000X-0.150000X-0.825000X0.150000X-0.825000X0.150000X0.825000X0*%
%ADD32RoundRect,0.250000X1.100000X-0.325000X1.100000X0.325000X-1.100000X0.325000X-1.100000X-0.325000X0*%
%ADD33RoundRect,0.225000X0.225000X0.250000X-0.225000X0.250000X-0.225000X-0.250000X0.225000X-0.250000X0*%
%ADD34RoundRect,0.225000X0.250000X-0.225000X0.250000X0.225000X-0.250000X0.225000X-0.250000X-0.225000X0*%
G04 APERTURE END LIST*
D10*
%TO.C,H6*%
X528750000Y-69250000D03*
%TD*%
%TO.C,H5*%
X514250000Y-102750000D03*
%TD*%
%TO.C,H4*%
X526000000Y-161000000D03*
%TD*%
%TO.C,H3*%
X483250000Y-188500000D03*
%TD*%
%TO.C,H2*%
X548250000Y2750000D03*
%TD*%
%TO.C,H1*%
X452750000Y-20750000D03*
%TD*%
D11*
%TO.C,U22*%
X467225000Y-28555000D03*
X467225000Y-29825000D03*
X467225000Y-31095000D03*
X467225000Y-32365000D03*
X467225000Y-33635000D03*
X467225000Y-34905000D03*
X467225000Y-36175000D03*
X467225000Y-37445000D03*
X462275000Y-37445000D03*
X462275000Y-36175000D03*
X462275000Y-34905000D03*
X462275000Y-33635000D03*
X462275000Y-32365000D03*
X462275000Y-31095000D03*
X462275000Y-29825000D03*
X462275000Y-28555000D03*
%TD*%
%TO.C,U21*%
X511525000Y-7555000D03*
X511525000Y-8825000D03*
X511525000Y-10095000D03*
X511525000Y-11365000D03*
X511525000Y-12635000D03*
X511525000Y-13905000D03*
X511525000Y-15175000D03*
X511525000Y-16445000D03*
X516475000Y-16445000D03*
X516475000Y-15175000D03*
X516475000Y-13905000D03*
X516475000Y-12635000D03*
X516475000Y-11365000D03*
X516475000Y-10095000D03*
X516475000Y-8825000D03*
X516475000Y-7555000D03*
%TD*%
%TO.C,U20*%
X500225000Y-4305000D03*
X500225000Y-5575000D03*
X500225000Y-6845000D03*
X500225000Y-8115000D03*
X500225000Y-9385000D03*
X500225000Y-10655000D03*
X500225000Y-11925000D03*
X500225000Y-13195000D03*
X495275000Y-13195000D03*
X495275000Y-11925000D03*
X495275000Y-10655000D03*
X495275000Y-9385000D03*
X495275000Y-8115000D03*
X495275000Y-6845000D03*
X495275000Y-5575000D03*
X495275000Y-4305000D03*
%TD*%
D12*
%TO.C,U19*%
X468445000Y-21975000D03*
X467175000Y-21975000D03*
X465905000Y-21975000D03*
X464635000Y-21975000D03*
X463365000Y-21975000D03*
X462095000Y-21975000D03*
X460825000Y-21975000D03*
X459555000Y-21975000D03*
X459555000Y-17025000D03*
X460825000Y-17025000D03*
X462095000Y-17025000D03*
X463365000Y-17025000D03*
X464635000Y-17025000D03*
X465905000Y-17025000D03*
X467175000Y-17025000D03*
X468445000Y-17025000D03*
%TD*%
%TO.C,U42*%
X492945000Y-22475000D03*
X491675000Y-22475000D03*
X490405000Y-22475000D03*
X489135000Y-22475000D03*
X487865000Y-22475000D03*
X486595000Y-22475000D03*
X485325000Y-22475000D03*
X484055000Y-22475000D03*
X484055000Y-17525000D03*
X485325000Y-17525000D03*
X486595000Y-17525000D03*
X487865000Y-17525000D03*
X489135000Y-17525000D03*
X490405000Y-17525000D03*
X491675000Y-17525000D03*
X492945000Y-17525000D03*
%TD*%
%TO.C,U41*%
X504945000Y-22475000D03*
X503675000Y-22475000D03*
X502405000Y-22475000D03*
X501135000Y-22475000D03*
X499865000Y-22475000D03*
X498595000Y-22475000D03*
X497325000Y-22475000D03*
X496055000Y-22475000D03*
X496055000Y-17525000D03*
X497325000Y-17525000D03*
X498595000Y-17525000D03*
X499865000Y-17525000D03*
X501135000Y-17525000D03*
X502405000Y-17525000D03*
X503675000Y-17525000D03*
X504945000Y-17525000D03*
%TD*%
D13*
%TO.C,R95*%
X502587500Y-14750000D03*
X504412500Y-14750000D03*
%TD*%
D14*
%TO.C,C16*%
X482500000Y-19225000D03*
X482500000Y-20775000D03*
%TD*%
%TO.C,C15*%
X494500000Y-19225000D03*
X494500000Y-20775000D03*
%TD*%
D15*
%TO.C,RV5*%
X523895387Y-79207000D03*
X528895387Y-80507000D03*
%TD*%
D16*
%TO.C,F4*%
X489718387Y-156561000D03*
X489718387Y-161561000D03*
X507518387Y-156561000D03*
X507518387Y-161561000D03*
%TD*%
D17*
%TO.C,D5*%
X455184387Y-152587000D03*
X455184387Y-149787000D03*
%TD*%
D15*
%TO.C,RV2*%
X523895387Y-94447000D03*
X528895387Y-95747000D03*
%TD*%
%TO.C,RV6*%
X523895387Y-74127000D03*
X528895387Y-75427000D03*
%TD*%
D18*
%TO.C,K3*%
X466046387Y-102448000D03*
X466046387Y-87448000D03*
X466046387Y-82448000D03*
X466046387Y-77448000D03*
X458546387Y-77448000D03*
X458546387Y-82448000D03*
X458546387Y-87448000D03*
X458546387Y-102448000D03*
%TD*%
D16*
%TO.C,F6*%
X507518387Y-114571000D03*
X507518387Y-109571000D03*
X489718387Y-114571000D03*
X489718387Y-109571000D03*
%TD*%
%TO.C,F1*%
X489718387Y-128367000D03*
X489718387Y-133367000D03*
X507518387Y-128367000D03*
X507518387Y-133367000D03*
%TD*%
D19*
%TO.C,J13*%
X540746387Y-62061000D03*
X535666387Y-62061000D03*
X540746387Y-64601000D03*
X535666387Y-64601000D03*
X540746387Y-67141000D03*
X535666387Y-67141000D03*
X540746387Y-69681000D03*
X535666387Y-69681000D03*
%TD*%
D16*
%TO.C,F5*%
X489728387Y-119009000D03*
X489728387Y-124009000D03*
X507528387Y-119009000D03*
X507528387Y-124009000D03*
%TD*%
D18*
%TO.C,K13*%
X496923387Y-191602000D03*
X496923387Y-176602000D03*
X496923387Y-171602000D03*
X496923387Y-166602000D03*
X489423387Y-166602000D03*
X489423387Y-171602000D03*
X489423387Y-176602000D03*
X489423387Y-191602000D03*
%TD*%
%TO.C,K10*%
X472262387Y-47272000D03*
X472262387Y-62272000D03*
X472262387Y-67272000D03*
X472262387Y-72272000D03*
X479762387Y-72272000D03*
X479762387Y-67272000D03*
X479762387Y-62272000D03*
X479762387Y-47272000D03*
%TD*%
D19*
%TO.C,J6*%
X535706387Y-103591000D03*
X540786387Y-103591000D03*
X535706387Y-101051000D03*
X540786387Y-101051000D03*
X535706387Y-98511000D03*
X540786387Y-98511000D03*
X535706387Y-95971000D03*
X540786387Y-95971000D03*
X535706387Y-93431000D03*
X540786387Y-93431000D03*
X535706387Y-90891000D03*
X540786387Y-90891000D03*
X535706387Y-88351000D03*
X540786387Y-88351000D03*
X535706387Y-85811000D03*
X540786387Y-85811000D03*
X535706387Y-83271000D03*
X540786387Y-83271000D03*
X535706387Y-80731000D03*
X540786387Y-80731000D03*
X535706387Y-78191000D03*
X540786387Y-78191000D03*
X535706387Y-75651000D03*
X540786387Y-75651000D03*
%TD*%
%TO.C,J11*%
X535575387Y-150425000D03*
X540655387Y-150425000D03*
X535575387Y-147885000D03*
X540655387Y-147885000D03*
X535575387Y-145345000D03*
X540655387Y-145345000D03*
X535575387Y-142805000D03*
X540655387Y-142805000D03*
%TD*%
D18*
%TO.C,K5*%
X458965387Y-158747000D03*
X473965387Y-158747000D03*
X478965387Y-158747000D03*
X483965387Y-158747000D03*
X483965387Y-151247000D03*
X478965387Y-151247000D03*
X473965387Y-151247000D03*
X458965387Y-151247000D03*
%TD*%
D20*
%TO.C,JP1*%
X472964387Y-181682000D03*
D21*
X472964387Y-184222000D03*
X472964387Y-186762000D03*
%TD*%
D19*
%TO.C,J2*%
X516652387Y-136455000D03*
X521732387Y-136455000D03*
X516652387Y-133915000D03*
X521732387Y-133915000D03*
X516652387Y-131375000D03*
X521732387Y-131375000D03*
X516652387Y-128835000D03*
X521732387Y-128835000D03*
%TD*%
%TO.C,J3*%
X535575387Y-136455000D03*
X540655387Y-136455000D03*
X535575387Y-133915000D03*
X540655387Y-133915000D03*
X535575387Y-131375000D03*
X540655387Y-131375000D03*
X535575387Y-128835000D03*
X540655387Y-128835000D03*
%TD*%
D18*
%TO.C,K6*%
X458965387Y-172463000D03*
X473965387Y-172463000D03*
X478965387Y-172463000D03*
X483965387Y-172463000D03*
X483965387Y-164963000D03*
X478965387Y-164963000D03*
X473965387Y-164963000D03*
X458965387Y-164963000D03*
%TD*%
D19*
%TO.C,J10*%
X535575387Y-178619000D03*
X540655387Y-178619000D03*
X535575387Y-176079000D03*
X540655387Y-176079000D03*
X535575387Y-173539000D03*
X540655387Y-173539000D03*
X535575387Y-170999000D03*
X540655387Y-170999000D03*
%TD*%
%TO.C,J8*%
X535575387Y-192335000D03*
X540655387Y-192335000D03*
X535575387Y-189795000D03*
X540655387Y-189795000D03*
X535575387Y-187255000D03*
X540655387Y-187255000D03*
X535575387Y-184715000D03*
X540655387Y-184715000D03*
%TD*%
%TO.C,J1*%
X516652387Y-122485000D03*
X521732387Y-122485000D03*
X516652387Y-119945000D03*
X521732387Y-119945000D03*
X516652387Y-117405000D03*
X521732387Y-117405000D03*
X516652387Y-114865000D03*
X521732387Y-114865000D03*
X516652387Y-112325000D03*
X521732387Y-112325000D03*
X516652387Y-109785000D03*
X521732387Y-109785000D03*
%TD*%
D16*
%TO.C,F2*%
X489718387Y-137765000D03*
X489718387Y-142765000D03*
X507518387Y-137765000D03*
X507518387Y-142765000D03*
%TD*%
%TO.C,F3*%
X489718387Y-147163000D03*
X489718387Y-152163000D03*
X507518387Y-147163000D03*
X507518387Y-152163000D03*
%TD*%
D18*
%TO.C,K8*%
X493478387Y-102448000D03*
X493478387Y-87448000D03*
X493478387Y-82448000D03*
X493478387Y-77448000D03*
X485978387Y-77448000D03*
X485978387Y-82448000D03*
X485978387Y-87448000D03*
X485978387Y-102448000D03*
%TD*%
D15*
%TO.C,RV4*%
X523895387Y-84287000D03*
X528895387Y-85587000D03*
%TD*%
D18*
%TO.C,K15*%
X524212387Y-191602000D03*
X524212387Y-176602000D03*
X524212387Y-171602000D03*
X524212387Y-166602000D03*
X516712387Y-166602000D03*
X516712387Y-171602000D03*
X516712387Y-176602000D03*
X516712387Y-191602000D03*
%TD*%
D15*
%TO.C,RV3*%
X523895387Y-89367000D03*
X528895387Y-90667000D03*
%TD*%
D19*
%TO.C,J9*%
X535575387Y-164903000D03*
X540655387Y-164903000D03*
X535575387Y-162363000D03*
X540655387Y-162363000D03*
X535575387Y-159823000D03*
X540655387Y-159823000D03*
X535575387Y-157283000D03*
X540655387Y-157283000D03*
%TD*%
D20*
%TO.C,JP2*%
X478000000Y-181682000D03*
D21*
X478000000Y-184222000D03*
X478000000Y-186762000D03*
%TD*%
D18*
%TO.C,K12*%
X499694387Y-47272000D03*
X499694387Y-62272000D03*
X499694387Y-67272000D03*
X499694387Y-72272000D03*
X507194387Y-72272000D03*
X507194387Y-67272000D03*
X507194387Y-62272000D03*
X507194387Y-47272000D03*
%TD*%
%TO.C,K4*%
X458546387Y-47272000D03*
X458546387Y-62272000D03*
X458546387Y-67272000D03*
X458546387Y-72272000D03*
X466046387Y-72272000D03*
X466046387Y-67272000D03*
X466046387Y-62272000D03*
X466046387Y-47272000D03*
%TD*%
%TO.C,K7*%
X507194387Y-102448000D03*
X507194387Y-87448000D03*
X507194387Y-82448000D03*
X507194387Y-77448000D03*
X499694387Y-77448000D03*
X499694387Y-82448000D03*
X499694387Y-87448000D03*
X499694387Y-102448000D03*
%TD*%
D15*
%TO.C,RV1*%
X523935387Y-99639000D03*
X528935387Y-100939000D03*
%TD*%
D18*
%TO.C,K16*%
X458965387Y-117599000D03*
X473965387Y-117599000D03*
X478965387Y-117599000D03*
X483965387Y-117599000D03*
X483965387Y-110099000D03*
X478965387Y-110099000D03*
X473965387Y-110099000D03*
X458965387Y-110099000D03*
%TD*%
D19*
%TO.C,J4*%
X516652387Y-150425000D03*
X521732387Y-150425000D03*
X516652387Y-147885000D03*
X521732387Y-147885000D03*
X516652387Y-145345000D03*
X521732387Y-145345000D03*
X516652387Y-142805000D03*
X521732387Y-142805000D03*
%TD*%
%TO.C,J5*%
X535575387Y-122485000D03*
X540655387Y-122485000D03*
X535575387Y-119945000D03*
X540655387Y-119945000D03*
X535575387Y-117405000D03*
X540655387Y-117405000D03*
X535575387Y-114865000D03*
X540655387Y-114865000D03*
X535575387Y-112325000D03*
X540655387Y-112325000D03*
X535575387Y-109785000D03*
X540655387Y-109785000D03*
%TD*%
D18*
%TO.C,K14*%
X510496387Y-191602000D03*
X510496387Y-176602000D03*
X510496387Y-171602000D03*
X510496387Y-166602000D03*
X502996387Y-166602000D03*
X502996387Y-171602000D03*
X502996387Y-176602000D03*
X502996387Y-191602000D03*
%TD*%
%TO.C,K11*%
X485978387Y-47272000D03*
X485978387Y-62272000D03*
X485978387Y-67272000D03*
X485978387Y-72272000D03*
X493478387Y-72272000D03*
X493478387Y-67272000D03*
X493478387Y-62272000D03*
X493478387Y-47272000D03*
%TD*%
%TO.C,K2*%
X458965387Y-145031000D03*
X473965387Y-145031000D03*
X478965387Y-145031000D03*
X483965387Y-145031000D03*
X483965387Y-137531000D03*
X478965387Y-137531000D03*
X473965387Y-137531000D03*
X458965387Y-137531000D03*
%TD*%
%TO.C,K9*%
X479762387Y-102448000D03*
X479762387Y-87448000D03*
X479762387Y-82448000D03*
X479762387Y-77448000D03*
X472262387Y-77448000D03*
X472262387Y-82448000D03*
X472262387Y-87448000D03*
X472262387Y-102448000D03*
%TD*%
D19*
%TO.C,J7*%
X535666387Y-56181000D03*
X540746387Y-56181000D03*
X535666387Y-53641000D03*
X540746387Y-53641000D03*
X535666387Y-51101000D03*
X540746387Y-51101000D03*
X535666387Y-48561000D03*
X540746387Y-48561000D03*
X535666387Y-46021000D03*
X540746387Y-46021000D03*
X535666387Y-43481000D03*
X540746387Y-43481000D03*
X535666387Y-40941000D03*
X540746387Y-40941000D03*
X535666387Y-38401000D03*
X540746387Y-38401000D03*
X535666387Y-35861000D03*
X540746387Y-35861000D03*
X535666387Y-33321000D03*
X540746387Y-33321000D03*
X535666387Y-30781000D03*
X540746387Y-30781000D03*
X535666387Y-28241000D03*
X540746387Y-28241000D03*
%TD*%
D18*
%TO.C,K1*%
X458965387Y-131315000D03*
X473965387Y-131315000D03*
X478965387Y-131315000D03*
X483965387Y-131315000D03*
X483965387Y-123815000D03*
X478965387Y-123815000D03*
X473965387Y-123815000D03*
X458965387Y-123815000D03*
%TD*%
D21*
%TO.C,U40*%
X511727887Y-37219000D03*
X511727887Y-34679000D03*
X509187887Y-37219000D03*
X509187887Y-34679000D03*
X506647887Y-37219000D03*
X506647887Y-34679000D03*
X504107887Y-37219000D03*
X504107887Y-34679000D03*
X496487887Y-37219000D03*
X496487887Y-34679000D03*
X493947887Y-37219000D03*
X493947887Y-34679000D03*
X491407887Y-37219000D03*
X491407887Y-34679000D03*
X488867887Y-37219000D03*
X488867887Y-34679000D03*
X486327887Y-37219000D03*
X486327887Y-34679000D03*
X483787887Y-37219000D03*
X483787887Y-34679000D03*
X481247887Y-37219000D03*
X481247887Y-34679000D03*
X478707887Y-37219000D03*
X478707887Y-34679000D03*
X476167887Y-37219000D03*
X476167887Y-34679000D03*
X473627887Y-37219000D03*
D20*
X473627887Y-34679000D03*
D21*
X511727887Y881000D03*
X511727887Y3421000D03*
X509187887Y881000D03*
X509187887Y3421000D03*
X506647887Y881000D03*
X506647887Y3421000D03*
X504107887Y881000D03*
X504107887Y3421000D03*
X501567887Y881000D03*
X501567887Y3421000D03*
X499027887Y881000D03*
X499027887Y3421000D03*
X496487887Y881000D03*
X496487887Y3421000D03*
X493947887Y881000D03*
X493947887Y3421000D03*
X491407887Y881000D03*
X491407887Y3421000D03*
X488867887Y881000D03*
X488867887Y3421000D03*
X486327887Y881000D03*
X486327887Y3421000D03*
X483787887Y881000D03*
X483787887Y3421000D03*
X481247887Y881000D03*
X481247887Y3421000D03*
X478707887Y881000D03*
X478707887Y3421000D03*
X476167887Y881000D03*
X476167887Y3421000D03*
X473627887Y881000D03*
D20*
X473627887Y3421000D03*
D10*
X527729887Y-35827000D03*
X460038887Y2019000D03*
%TD*%
D17*
%TO.C,D6*%
X455184387Y-166303000D03*
X455184387Y-163503000D03*
%TD*%
D22*
%TO.C,R37*%
X526344487Y-83271000D03*
X529269487Y-83271000D03*
%TD*%
D23*
%TO.C,R10*%
X477282387Y-57103500D03*
X477282387Y-55278500D03*
%TD*%
%TO.C,R14*%
X504714387Y-57103500D03*
X504714387Y-55278500D03*
%TD*%
D13*
%TO.C,R89*%
X469837500Y-26250000D03*
X471662500Y-26250000D03*
%TD*%
D22*
%TO.C,R33*%
X526334887Y-103607000D03*
X529259887Y-103607000D03*
%TD*%
D24*
%TO.C,U14*%
X462943887Y-181540000D03*
X462943887Y-182810000D03*
X456568887Y-182810000D03*
X456568887Y-181540000D03*
%TD*%
%TO.C,U37*%
X520433887Y-31098000D03*
X520433887Y-32368000D03*
X514058887Y-32368000D03*
X514058887Y-31098000D03*
%TD*%
D25*
%TO.C,R69*%
X465000000Y-24587500D03*
X465000000Y-26412500D03*
%TD*%
D24*
%TO.C,U2*%
X462181887Y-154362000D03*
X462181887Y-155632000D03*
X455806887Y-155632000D03*
X455806887Y-154362000D03*
%TD*%
D26*
%TO.C,R49*%
X529383887Y-41971000D03*
X527558887Y-41971000D03*
%TD*%
%TO.C,R58*%
X529383887Y-32471000D03*
X527558887Y-32471000D03*
%TD*%
D23*
%TO.C,R17*%
X463566387Y-94441500D03*
X463566387Y-92616500D03*
%TD*%
D13*
%TO.C,R72*%
X503087500Y-9750000D03*
X504912500Y-9750000D03*
%TD*%
D27*
%TO.C,D25*%
X522450387Y-53135000D03*
X525250387Y-53135000D03*
%TD*%
D24*
%TO.C,U13*%
X462943887Y-178238000D03*
X462943887Y-179508000D03*
X456568887Y-179508000D03*
X456568887Y-178238000D03*
%TD*%
D28*
%TO.C,D15*%
X467760387Y-179127000D03*
X464960387Y-179127000D03*
%TD*%
D25*
%TO.C,R70*%
X467000000Y-24587500D03*
X467000000Y-26412500D03*
%TD*%
D26*
%TO.C,R94*%
X455662500Y-34750000D03*
X453837500Y-34750000D03*
%TD*%
D23*
%TO.C,R5*%
X504714387Y-94441500D03*
X504714387Y-92616500D03*
%TD*%
D14*
%TO.C,C12*%
X493250000Y-3475000D03*
X493250000Y-5025000D03*
%TD*%
D26*
%TO.C,R46*%
X532939887Y-52131000D03*
X531114887Y-52131000D03*
%TD*%
D29*
%TO.C,U8*%
X476647387Y-50742500D03*
X475377387Y-50742500D03*
X475377387Y-44367500D03*
X476647387Y-44367500D03*
%TD*%
D24*
%TO.C,U1*%
X462435887Y-140646000D03*
X462435887Y-141916000D03*
X456060887Y-141916000D03*
X456060887Y-140646000D03*
%TD*%
D28*
%TO.C,D10*%
X477412387Y-53143000D03*
X474612387Y-53143000D03*
%TD*%
D13*
%TO.C,R90*%
X469837500Y-24250000D03*
X471662500Y-24250000D03*
%TD*%
D30*
%TO.C,U17*%
X519827387Y-186607500D03*
X521097387Y-186607500D03*
X521097387Y-192982500D03*
X519827387Y-192982500D03*
%TD*%
D23*
%TO.C,R12*%
X490998387Y-57103500D03*
X490998387Y-55278500D03*
%TD*%
D26*
%TO.C,R85*%
X509412500Y-13500000D03*
X507587500Y-13500000D03*
%TD*%
%TO.C,R43*%
X529383887Y-49591000D03*
X527558887Y-49591000D03*
%TD*%
D24*
%TO.C,U26*%
X520433887Y-62598000D03*
X520433887Y-63868000D03*
X514058887Y-63868000D03*
X514058887Y-62598000D03*
%TD*%
D28*
%TO.C,D11*%
X491128387Y-53143000D03*
X488328387Y-53143000D03*
%TD*%
D24*
%TO.C,U36*%
X520433887Y-24494000D03*
X520433887Y-25764000D03*
X514058887Y-25764000D03*
X514058887Y-24494000D03*
%TD*%
D26*
%TO.C,R29*%
X521374887Y-179889000D03*
X519549887Y-179889000D03*
%TD*%
%TO.C,R27*%
X507658887Y-179889000D03*
X505833887Y-179889000D03*
%TD*%
D31*
%TO.C,U5*%
X496055000Y-25025000D03*
X497325000Y-25025000D03*
X498595000Y-25025000D03*
X499865000Y-25025000D03*
X501135000Y-25025000D03*
X502405000Y-25025000D03*
X503675000Y-25025000D03*
X504945000Y-25025000D03*
X504945000Y-29975000D03*
X503675000Y-29975000D03*
X502405000Y-29975000D03*
X501135000Y-29975000D03*
X499865000Y-29975000D03*
X498595000Y-29975000D03*
X497325000Y-29975000D03*
X496055000Y-29975000D03*
%TD*%
D29*
%TO.C,U9*%
X490363387Y-50742500D03*
X489093387Y-50742500D03*
X489093387Y-44367500D03*
X490363387Y-44367500D03*
%TD*%
D26*
%TO.C,R41*%
X532939887Y-57211000D03*
X531114887Y-57211000D03*
%TD*%
%TO.C,R20*%
X469558887Y-168205000D03*
X467733887Y-168205000D03*
%TD*%
D32*
%TO.C,C3*%
X532023387Y-93636000D03*
X532023387Y-90686000D03*
%TD*%
D26*
%TO.C,R55*%
X529383887Y-24851000D03*
X527558887Y-24851000D03*
%TD*%
%TO.C,R53*%
X532939887Y-41971000D03*
X531114887Y-41971000D03*
%TD*%
D24*
%TO.C,U32*%
X520433887Y-42848000D03*
X520433887Y-44118000D03*
X514058887Y-44118000D03*
X514058887Y-42848000D03*
%TD*%
D27*
%TO.C,D28*%
X522450387Y-46531000D03*
X525250387Y-46531000D03*
%TD*%
D26*
%TO.C,R50*%
X529383887Y-47051000D03*
X527558887Y-47051000D03*
%TD*%
D25*
%TO.C,R67*%
X461000000Y-24587500D03*
X461000000Y-26412500D03*
%TD*%
D27*
%TO.C,D19*%
X519062387Y-184207000D03*
X521862387Y-184207000D03*
%TD*%
%TO.C,D33*%
X522450387Y-24875000D03*
X525250387Y-24875000D03*
%TD*%
D32*
%TO.C,C2*%
X532023387Y-98716000D03*
X532023387Y-95766000D03*
%TD*%
D22*
%TO.C,R38*%
X526344487Y-78191000D03*
X529269487Y-78191000D03*
%TD*%
D26*
%TO.C,R62*%
X532939887Y-32471000D03*
X531114887Y-32471000D03*
%TD*%
D28*
%TO.C,D14*%
X463696387Y-53143000D03*
X460896387Y-53143000D03*
%TD*%
D23*
%TO.C,R23*%
X469916387Y-183341500D03*
X469916387Y-181516500D03*
%TD*%
D24*
%TO.C,U23*%
X462933887Y-188098000D03*
X462933887Y-189368000D03*
X456558887Y-189368000D03*
X456558887Y-188098000D03*
%TD*%
D27*
%TO.C,D13*%
X460896387Y-96577000D03*
X463696387Y-96577000D03*
%TD*%
D14*
%TO.C,C14*%
X460250000Y-28475000D03*
X460250000Y-30025000D03*
%TD*%
D26*
%TO.C,R78*%
X492412500Y-12750000D03*
X490587500Y-12750000D03*
%TD*%
D29*
%TO.C,U10*%
X504079387Y-50742500D03*
X502809387Y-50742500D03*
X502809387Y-44367500D03*
X504079387Y-44367500D03*
%TD*%
D13*
%TO.C,R93*%
X457837500Y-39250000D03*
X459662500Y-39250000D03*
%TD*%
D27*
%TO.C,D31*%
X522450387Y-21573000D03*
X525250387Y-21573000D03*
%TD*%
D24*
%TO.C,U35*%
X520433887Y-27796000D03*
X520433887Y-29066000D03*
X514058887Y-29066000D03*
X514058887Y-27796000D03*
%TD*%
D28*
%TO.C,D12*%
X504844387Y-53143000D03*
X502044387Y-53143000D03*
%TD*%
D22*
%TO.C,R35*%
X526344487Y-93431000D03*
X529269487Y-93431000D03*
%TD*%
D26*
%TO.C,R91*%
X458412500Y-32250000D03*
X456587500Y-32250000D03*
%TD*%
D33*
%TO.C,C11*%
X469525000Y-15000000D03*
X467975000Y-15000000D03*
%TD*%
D24*
%TO.C,U33*%
X520433887Y-49452000D03*
X520433887Y-50722000D03*
X514058887Y-50722000D03*
X514058887Y-49452000D03*
%TD*%
D27*
%TO.C,D24*%
X522450387Y-59729000D03*
X525250387Y-59729000D03*
%TD*%
D26*
%TO.C,R61*%
X532939887Y-27391000D03*
X531114887Y-27391000D03*
%TD*%
D28*
%TO.C,D22*%
X467750387Y-185685000D03*
X464950387Y-185685000D03*
%TD*%
%TO.C,D1*%
X460394387Y-127311000D03*
X457594387Y-127311000D03*
%TD*%
D26*
%TO.C,R40*%
X529383887Y-57211000D03*
X527558887Y-57211000D03*
%TD*%
D23*
%TO.C,R65*%
X466250000Y-14412500D03*
X466250000Y-12587500D03*
%TD*%
D25*
%TO.C,R6*%
X488458387Y-92616500D03*
X488458387Y-94441500D03*
%TD*%
D23*
%TO.C,R18*%
X463566387Y-57103500D03*
X463566387Y-55278500D03*
%TD*%
D25*
%TO.C,R11*%
X474742387Y-55278500D03*
X474742387Y-57103500D03*
%TD*%
D27*
%TO.C,D32*%
X522450387Y-28177000D03*
X525250387Y-28177000D03*
%TD*%
D26*
%TO.C,R60*%
X532939887Y-29931000D03*
X531114887Y-29931000D03*
%TD*%
%TO.C,R3*%
X464224887Y-172523000D03*
X462399887Y-172523000D03*
%TD*%
D25*
%TO.C,R68*%
X463000000Y-24587500D03*
X463000000Y-26412500D03*
%TD*%
%TO.C,R13*%
X488458387Y-55278500D03*
X488458387Y-57103500D03*
%TD*%
D22*
%TO.C,R36*%
X526369887Y-88376400D03*
X529294887Y-88376400D03*
%TD*%
D30*
%TO.C,U11*%
X461661387Y-98977500D03*
X462931387Y-98977500D03*
X462931387Y-105352500D03*
X461661387Y-105352500D03*
%TD*%
D24*
%TO.C,U30*%
X520433887Y-39546000D03*
X520433887Y-40816000D03*
X514058887Y-40816000D03*
X514058887Y-39546000D03*
%TD*%
D28*
%TO.C,D20*%
X467750387Y-188987000D03*
X464950387Y-188987000D03*
%TD*%
D27*
%TO.C,D7*%
X502044387Y-96577000D03*
X504844387Y-96577000D03*
%TD*%
D26*
%TO.C,R47*%
X529383887Y-39431000D03*
X527558887Y-39431000D03*
%TD*%
D25*
%TO.C,R4*%
X502174387Y-92616500D03*
X502174387Y-94441500D03*
%TD*%
D26*
%TO.C,R48*%
X529383887Y-44511000D03*
X527558887Y-44511000D03*
%TD*%
D34*
%TO.C,C7*%
X506500000Y-28275000D03*
X506500000Y-26725000D03*
%TD*%
D31*
%TO.C,U18*%
X484055000Y-25025000D03*
X485325000Y-25025000D03*
X486595000Y-25025000D03*
X487865000Y-25025000D03*
X489135000Y-25025000D03*
X490405000Y-25025000D03*
X491675000Y-25025000D03*
X492945000Y-25025000D03*
X492945000Y-29975000D03*
X491675000Y-29975000D03*
X490405000Y-29975000D03*
X489135000Y-29975000D03*
X487865000Y-29975000D03*
X486595000Y-29975000D03*
X485325000Y-29975000D03*
X484055000Y-29975000D03*
%TD*%
D25*
%TO.C,R22*%
X483378387Y-180246500D03*
X483378387Y-182071500D03*
%TD*%
D23*
%TO.C,R64*%
X462250000Y-14412500D03*
X462250000Y-12587500D03*
%TD*%
D24*
%TO.C,U31*%
X520433887Y-46150000D03*
X520433887Y-47420000D03*
X514058887Y-47420000D03*
X514058887Y-46150000D03*
%TD*%
D26*
%TO.C,R32*%
X533058887Y-184715000D03*
X531233887Y-184715000D03*
%TD*%
D30*
%TO.C,U6*%
X489093387Y-98977500D03*
X490363387Y-98977500D03*
X490363387Y-105352500D03*
X489093387Y-105352500D03*
%TD*%
D13*
%TO.C,R73*%
X503087500Y-7750000D03*
X504912500Y-7750000D03*
%TD*%
D24*
%TO.C,U24*%
X462933887Y-191400000D03*
X462933887Y-192670000D03*
X456558887Y-192670000D03*
X456558887Y-191400000D03*
%TD*%
D27*
%TO.C,D23*%
X522450387Y-62979000D03*
X525250387Y-62979000D03*
%TD*%
%TO.C,D8*%
X488328387Y-96577000D03*
X491128387Y-96577000D03*
%TD*%
%TO.C,D17*%
X491630387Y-184207000D03*
X494430387Y-184207000D03*
%TD*%
D26*
%TO.C,R30*%
X533058887Y-157283000D03*
X531233887Y-157283000D03*
%TD*%
D13*
%TO.C,R79*%
X520337500Y-18500000D03*
X522162500Y-18500000D03*
%TD*%
D30*
%TO.C,U16*%
X506111387Y-186607500D03*
X507381387Y-186607500D03*
X507381387Y-192982500D03*
X506111387Y-192982500D03*
%TD*%
D13*
%TO.C,R82*%
X520337500Y-11750000D03*
X522162500Y-11750000D03*
%TD*%
D22*
%TO.C,R34*%
X526344487Y-98536400D03*
X529269487Y-98536400D03*
%TD*%
D25*
%TO.C,R15*%
X502174387Y-55278500D03*
X502174387Y-57103500D03*
%TD*%
D26*
%TO.C,R51*%
X532939887Y-39431000D03*
X531114887Y-39431000D03*
%TD*%
D27*
%TO.C,D30*%
X522450387Y-49833000D03*
X525250387Y-49833000D03*
%TD*%
D24*
%TO.C,U28*%
X520433887Y-52754000D03*
X520433887Y-54024000D03*
X514058887Y-54024000D03*
X514058887Y-52754000D03*
%TD*%
D27*
%TO.C,D34*%
X522450387Y-31479000D03*
X525250387Y-31479000D03*
%TD*%
D23*
%TO.C,R9*%
X477282387Y-94441500D03*
X477282387Y-92616500D03*
%TD*%
D13*
%TO.C,R28*%
X531233887Y-159823000D03*
X533058887Y-159823000D03*
%TD*%
D34*
%TO.C,C8*%
X494500000Y-28275000D03*
X494500000Y-26725000D03*
%TD*%
D25*
%TO.C,R16*%
X461026387Y-92616500D03*
X461026387Y-94441500D03*
%TD*%
D13*
%TO.C,R81*%
X520337500Y-14000000D03*
X522162500Y-14000000D03*
%TD*%
D26*
%TO.C,R42*%
X532939887Y-54671000D03*
X531114887Y-54671000D03*
%TD*%
D30*
%TO.C,U15*%
X492395387Y-186607500D03*
X493665387Y-186607500D03*
X493665387Y-192982500D03*
X492395387Y-192982500D03*
%TD*%
D28*
%TO.C,D16*%
X467760387Y-182429000D03*
X464960387Y-182429000D03*
%TD*%
D27*
%TO.C,D27*%
X522450387Y-39927000D03*
X525250387Y-39927000D03*
%TD*%
D26*
%TO.C,R86*%
X509412500Y-15500000D03*
X507587500Y-15500000D03*
%TD*%
D24*
%TO.C,U25*%
X462933887Y-184796000D03*
X462933887Y-186066000D03*
X456558887Y-186066000D03*
X456558887Y-184796000D03*
%TD*%
%TO.C,U29*%
X520433887Y-56056000D03*
X520433887Y-57326000D03*
X514058887Y-57326000D03*
X514058887Y-56056000D03*
%TD*%
D23*
%TO.C,R7*%
X490998387Y-94441500D03*
X490998387Y-92616500D03*
%TD*%
D29*
%TO.C,U12*%
X462931387Y-50742500D03*
X461661387Y-50742500D03*
X461661387Y-44367500D03*
X462931387Y-44367500D03*
%TD*%
D32*
%TO.C,C4*%
X532023387Y-88556000D03*
X532023387Y-85606000D03*
%TD*%
D26*
%TO.C,R52*%
X532939887Y-44511000D03*
X531114887Y-44511000D03*
%TD*%
%TO.C,R59*%
X532939887Y-24851000D03*
X531114887Y-24851000D03*
%TD*%
D13*
%TO.C,R71*%
X503087500Y-11750000D03*
X504912500Y-11750000D03*
%TD*%
%TO.C,R83*%
X520337500Y-9500000D03*
X522162500Y-9500000D03*
%TD*%
%TO.C,R74*%
X503087500Y-5750000D03*
X504912500Y-5750000D03*
%TD*%
D27*
%TO.C,D26*%
X522450387Y-56437000D03*
X525250387Y-56437000D03*
%TD*%
D26*
%TO.C,R54*%
X532939887Y-47051000D03*
X531114887Y-47051000D03*
%TD*%
%TO.C,R75*%
X492412500Y-6750000D03*
X490587500Y-6750000D03*
%TD*%
D30*
%TO.C,U4*%
X502809387Y-98977500D03*
X504079387Y-98977500D03*
X504079387Y-105352500D03*
X502809387Y-105352500D03*
%TD*%
D28*
%TO.C,D21*%
X467750387Y-192289000D03*
X464950387Y-192289000D03*
%TD*%
D13*
%TO.C,R21*%
X475353887Y-168967000D03*
X477178887Y-168967000D03*
%TD*%
D30*
%TO.C,U7*%
X475377387Y-98977500D03*
X476647387Y-98977500D03*
X476647387Y-105352500D03*
X475377387Y-105352500D03*
%TD*%
D32*
%TO.C,C6*%
X532023387Y-78396000D03*
X532023387Y-75446000D03*
%TD*%
D13*
%TO.C,R87*%
X469837500Y-30250000D03*
X471662500Y-30250000D03*
%TD*%
D28*
%TO.C,D4*%
X459400000Y-105750000D03*
X456600000Y-105750000D03*
%TD*%
D26*
%TO.C,R2*%
X464224887Y-158807000D03*
X462399887Y-158807000D03*
%TD*%
%TO.C,R57*%
X529383887Y-27391000D03*
X527558887Y-27391000D03*
%TD*%
D23*
%TO.C,R66*%
X464250000Y-14412500D03*
X464250000Y-12587500D03*
%TD*%
D26*
%TO.C,R25*%
X493942887Y-179889000D03*
X492117887Y-179889000D03*
%TD*%
D23*
%TO.C,R63*%
X460250000Y-14412500D03*
X460250000Y-12587500D03*
%TD*%
D26*
%TO.C,R44*%
X529383887Y-52131000D03*
X527558887Y-52131000D03*
%TD*%
D27*
%TO.C,D29*%
X522450387Y-43229000D03*
X525250387Y-43229000D03*
%TD*%
D25*
%TO.C,R8*%
X474840387Y-92616500D03*
X474840387Y-94441500D03*
%TD*%
%TO.C,R19*%
X461026387Y-55278500D03*
X461026387Y-57103500D03*
%TD*%
D27*
%TO.C,D18*%
X505346387Y-184207000D03*
X508146387Y-184207000D03*
%TD*%
D26*
%TO.C,R84*%
X509412500Y-11500000D03*
X507587500Y-11500000D03*
%TD*%
D24*
%TO.C,U27*%
X520433887Y-59348000D03*
X520433887Y-60618000D03*
X514058887Y-60618000D03*
X514058887Y-59348000D03*
%TD*%
%TO.C,U34*%
X520433887Y-21192000D03*
X520433887Y-22462000D03*
X514058887Y-22462000D03*
X514058887Y-21192000D03*
%TD*%
D27*
%TO.C,D9*%
X474612387Y-96577000D03*
X477412387Y-96577000D03*
%TD*%
D26*
%TO.C,R39*%
X529383887Y-54671000D03*
X527558887Y-54671000D03*
%TD*%
D13*
%TO.C,R80*%
X520337500Y-16250000D03*
X522162500Y-16250000D03*
%TD*%
D32*
%TO.C,C1*%
X532023387Y-103796000D03*
X532023387Y-100846000D03*
%TD*%
%TO.C,C5*%
X532023387Y-83476000D03*
X532023387Y-80526000D03*
%TD*%
D27*
%TO.C,D3*%
X456850000Y-43500000D03*
X459650000Y-43500000D03*
%TD*%
D13*
%TO.C,R31*%
X531233887Y-187255000D03*
X533058887Y-187255000D03*
%TD*%
D26*
%TO.C,R45*%
X532939887Y-49591000D03*
X531114887Y-49591000D03*
%TD*%
%TO.C,R76*%
X492412500Y-8750000D03*
X490587500Y-8750000D03*
%TD*%
%TO.C,R77*%
X492412500Y-10750000D03*
X490587500Y-10750000D03*
%TD*%
D13*
%TO.C,R24*%
X531233887Y-173539000D03*
X533058887Y-173539000D03*
%TD*%
D14*
%TO.C,C13*%
X509500000Y-9025000D03*
X509500000Y-7475000D03*
%TD*%
D25*
%TO.C,R1*%
X463312387Y-136050500D03*
X463312387Y-137875500D03*
%TD*%
D13*
%TO.C,R92*%
X458337500Y-37250000D03*
X460162500Y-37250000D03*
%TD*%
%TO.C,R88*%
X469837500Y-28250000D03*
X471662500Y-28250000D03*
%TD*%
D26*
%TO.C,R26*%
X533058887Y-170999000D03*
X531233887Y-170999000D03*
%TD*%
D24*
%TO.C,U3*%
X462181887Y-168078000D03*
X462181887Y-169348000D03*
X455806887Y-169348000D03*
X455806887Y-168078000D03*
%TD*%
D26*
%TO.C,R56*%
X529383887Y-29931000D03*
X527558887Y-29931000D03*
%TD*%
M02*
