M48
; DRILL file {KiCad 8.0.1} date 2025-01-31T20:34:17-0500
; FORMAT={-:-/ absolute / inch / decimal}
; #@! TF.CreationDate,2025-01-31T20:34:17-05:00
; #@! TF.GenerationSoftware,Kicad,Pcbnew,8.0.1
; #@! TF.FileFunction,Plated,1,4,PTH
FMAT,2
INCH
; #@! TA.AperFunction,Plated,PTH,ViaDrill
T1C0.0157
; #@! TA.AperFunction,Plated,PTH,ComponentDrill
T2C0.0236
; #@! TA.AperFunction,Plated,PTH,ComponentDrill
T3C0.0394
; #@! TA.AperFunction,Plated,PTH,ComponentDrill
T4C0.0461
; #@! TA.AperFunction,Plated,PTH,ComponentDrill
T5C0.0472
; #@! TA.AperFunction,Plated,PTH,ComponentDrill
T6C0.0512
%
G90
G05
T1
X17.8494Y-4.065
X17.8494Y-4.1078
X17.8494Y-4.1506
X17.8494Y-4.1944
X17.8553Y-7.3819
X17.9147Y-6.0531
X17.9174Y-6.5926
X17.925Y-1.3108
X17.9528Y-5.4921
X17.9528Y-6.1614
X17.9528Y-6.7028
X17.9626Y-5.6299
X17.9724Y-6.9783
X17.9724Y-7.1161
X17.9724Y-7.2343
X17.9724Y-7.372
X17.9724Y-7.5
X18.0198Y-0.9332
X18.0198Y-1.3269
X18.0217Y-7.0669
X18.0217Y-7.1949
X18.0217Y-7.3228
X18.0217Y-7.4508
X18.0217Y-7.5886
X18.061Y-1.4173
X18.0807Y-1.122
X18.0906Y-0.8071
X18.1102Y-1.2303
X18.1201Y-1.3681
X18.134Y-1.2934
X18.1398Y-1.5157
X18.1398Y-1.7421
X18.1398Y-4.2175
X18.1693Y-0.6102
X18.1693Y-0.9252
X18.1988Y-4.9803
X18.1988Y-6.1922
X18.2087Y-5.6299
X18.2087Y-6.7224
X18.2382Y-0.6102
X18.2382Y-0.9252
X18.2606Y-6.1922
X18.2776Y-4.124
X18.2806Y-6.0422
X18.2972Y-0.6102
X18.2972Y-0.9252
X18.2972Y-4.872
X18.3169Y-3.563
X18.3366Y-4.125
X18.3366Y-4.2175
X18.3465Y-0.6102
X18.3465Y-0.9252
X18.3465Y-1.0925
X18.3506Y-7.1822
X18.3686Y-7.2636
X18.3686Y-7.3936
X18.3686Y-7.5236
X18.3858Y-4.124
X18.3858Y-4.2175
X18.3957Y-1.5059
X18.4055Y-0.4921
X18.4055Y-6.1022
X18.4139Y-0.9164
X18.4252Y-0.5512
X18.4306Y-1.0881
X18.435Y-1.0433
X18.4419Y-7.4825
X18.4509Y-7.3498
X18.4509Y-7.6098
X18.4547Y-1.3878
X18.4646Y-1.6732
X18.4656Y-1.3074
X18.4843Y-0.5512
X18.4843Y-0.8661
X18.4941Y-1.2402
X18.4941Y-1.4665
X18.4959Y-1.387
X18.5028Y-7.2601
X18.528Y-1.0643
X18.528Y-1.143
X18.5728Y-1.2402
X18.5728Y-1.4961
X18.6713Y-1.7421
X18.6811Y-4.1998
X18.7008Y-2.4705
X18.7106Y-3.435
X18.7598Y-0.3789
X18.7697Y-4.2028
X18.7992Y-1.752
X18.8041Y-0.3494
X18.9173Y-2.9429
X19.0256Y-0.8563
X19.0354Y-0.7569
X19.1173Y-6.1189
X19.1606Y-6.3322
X19.1929Y-1.5157
X19.2028Y-0.3642
X19.2028Y-0.4035
X19.2028Y-0.4429
X19.2028Y-4.1821
X19.2126Y-1.7421
X19.2224Y-2.6772
X19.2323Y-0.748
X19.2815Y-2.6083
X19.2815Y-3.4547
X19.2874Y-2.4468
X19.311Y-0.2165
X19.311Y-4.2126
X19.3247Y-0.7874
X19.3406Y-1.7421
X19.3799Y-0.1378
X19.3799Y-0.1969
X19.4274Y-0.3821
X19.4291Y-0.2695
X19.4291Y-0.3195
X19.4306Y-6.2122
X19.439Y-1.0138
X19.439Y-7.5492
X19.4423Y-0.725
X19.4685Y-1.2205
X19.4882Y-1.5453
X19.498Y-0.8563
X19.4987Y-0.0804
X19.5339Y-1.7189
X19.5606Y-7.2422
X19.5607Y-1.667
X19.5777Y-1.625
X19.6006Y-7.0822
X19.6063Y-0.748
X19.6358Y-0.5217
X19.6457Y-4.1535
X19.7128Y-0.7856
X19.7539Y-1.7421
X19.7635Y-0.2695
X19.7638Y-0.3195
X19.7638Y-0.3695
X19.7655Y-0.4215
X19.7933Y-2.7067
X19.8327Y-2.5197
X19.8622Y-3.4055
X19.8819Y-0.1772
X19.8819Y-0.748
X19.8819Y-1.7421
X19.8819Y-4.1437
X19.8821Y-2.6179
X19.9114Y-1.0138
X19.9409Y-0.5315
X19.9409Y-1.2205
X19.9705Y-7.5492
X20.0306Y-7.0422
X20.0591Y-0.3937
X20.0596Y-0.2554
X20.1378Y-3.1604
X20.1575Y-3.3661
X20.176Y-1.0445
X20.1772Y-0.8366
X20.187Y-1.1319
X20.187Y-1.2598
X20.187Y-1.6043
X20.187Y-1.7323
X20.187Y-1.8602
X20.187Y-1.998
X20.187Y-2.126
X20.187Y-2.2539
X20.187Y-2.3819
X20.187Y-2.5098
X20.2067Y-0.4035
X20.2352Y-0.4528
X20.253Y-0.4921
X20.2707Y-0.5315
X20.2756Y-0.4331
X20.2884Y-0.8661
X20.2953Y-1.6831
X20.2953Y-1.811
X20.2953Y-1.939
X20.2953Y-2.2047
X20.2953Y-2.3327
X20.2953Y-2.4606
X20.3051Y-2.0768
X20.3563Y-0.6791
X20.3642Y-0.7382
X20.3917Y-0.5118
X20.4823Y-0.7776
X20.5118Y-0.5118
X20.5118Y-7.5492
X20.5216Y-0.6792
X20.5512Y-0.315
X20.5807Y-2.5295
X20.6004Y-1.8799
X20.6004Y-2.0079
X20.6004Y-2.1358
X20.6004Y-2.2638
X20.6102Y-2.4016
X20.6299Y-0.8957
X20.6299Y-1.0236
X20.6299Y-1.1516
X20.6299Y-1.2795
X20.6299Y-1.6142
X20.6299Y-1.7421
X20.8656Y-6.2495
X20.8661Y-6.3091
X20.8661Y-6.8209
X20.8687Y-6.7447
X20.876Y-7.5591
X20.8931Y-7.3254
X20.8957Y-7.6772
X20.9154Y-7.2146
X20.9252Y-7.5886
X20.9252Y-7.6378
X21.3091Y-7.6476
X21.3583Y-7.6673
T2
X20.6258Y-2.9184
X20.6258Y-3.1184
X20.6258Y-3.3184
X20.6258Y-3.5184
X20.6258Y-3.7184
X20.6274Y-3.9228
X20.8227Y-2.9696
X20.8227Y-3.1696
X20.8227Y-3.3696
X20.8227Y-3.5696
X20.8227Y-3.7696
X20.8242Y-3.974
T3
X18.6206Y-7.1528
X18.6206Y-7.2528
X18.6206Y-7.3528
X18.6468Y0.1347
X18.6468Y0.0347
X18.6468Y-1.3653
X18.6468Y-1.4653
X18.7468Y0.1347
X18.7468Y0.0347
X18.7468Y-1.3653
X18.7468Y-1.4653
X18.8189Y-7.1528
X18.8189Y-7.2528
X18.8189Y-7.3528
X18.8468Y0.1347
X18.8468Y0.0347
X18.8468Y-1.3653
X18.8468Y-1.4653
X18.9468Y0.1347
X18.9468Y0.0347
X18.9468Y-1.3653
X18.9468Y-1.4653
X19.0468Y0.1347
X19.0468Y0.0347
X19.0468Y-1.3653
X19.0468Y-1.4653
X19.1468Y0.1347
X19.1468Y0.0347
X19.1468Y-1.3653
X19.1468Y-1.4653
X19.2468Y0.1347
X19.2468Y0.0347
X19.2468Y-1.3653
X19.2468Y-1.4653
X19.3468Y0.1347
X19.3468Y0.0347
X19.3468Y-1.3653
X19.3468Y-1.4653
X19.4468Y0.1347
X19.4468Y0.0347
X19.4468Y-1.3653
X19.4468Y-1.4653
X19.5468Y0.1347
X19.5468Y0.0347
X19.5468Y-1.3653
X19.5468Y-1.4653
X19.6468Y0.1347
X19.6468Y0.0347
X19.7468Y0.1347
X19.7468Y0.0347
X19.8468Y0.1347
X19.8468Y0.0347
X19.8468Y-1.3653
X19.8468Y-1.4653
X19.9468Y0.1347
X19.9468Y0.0347
X19.9468Y-1.3653
X19.9468Y-1.4653
X20.0468Y0.1347
X20.0468Y0.0347
X20.0468Y-1.3653
X20.0468Y-1.4653
X20.1468Y0.1347
X20.1468Y0.0347
X20.1468Y-1.3653
X20.1468Y-1.4653
T4
X19.2803Y-4.3138
X19.2803Y-4.5107
X19.2803Y-5.0538
X19.2803Y-5.2507
X19.2803Y-5.4238
X19.2803Y-5.6207
X19.2803Y-5.7938
X19.2803Y-5.9907
X19.2803Y-6.1638
X19.2803Y-6.3607
X19.2806Y-4.6854
X19.2806Y-4.8822
X19.981Y-4.3138
X19.981Y-4.5107
X19.981Y-5.0538
X19.981Y-5.2507
X19.981Y-5.4238
X19.981Y-5.6207
X19.981Y-5.7938
X19.981Y-5.9907
X19.981Y-6.1638
X19.981Y-6.3607
X19.9814Y-4.6854
X19.9814Y-4.8822
T5
X20.3406Y-4.3222
X20.3406Y-4.4222
X20.3406Y-4.5222
X20.3406Y-4.6222
X20.3406Y-4.7222
X20.3406Y-4.8222
X20.3406Y-5.0722
X20.3406Y-5.1722
X20.3406Y-5.2722
X20.3406Y-5.3722
X20.3406Y-5.6222
X20.3406Y-5.7222
X20.3406Y-5.8222
X20.3406Y-5.9222
X20.5406Y-4.3222
X20.5406Y-4.4222
X20.5406Y-4.5222
X20.5406Y-4.6222
X20.5406Y-4.7222
X20.5406Y-4.8222
X20.5406Y-5.0722
X20.5406Y-5.1722
X20.5406Y-5.2722
X20.5406Y-5.3722
X20.5406Y-5.6222
X20.5406Y-5.7222
X20.5406Y-5.8222
X20.5406Y-5.9222
X21.0856Y-4.3222
X21.0856Y-4.4222
X21.0856Y-4.5222
X21.0856Y-4.6222
X21.0856Y-4.7222
X21.0856Y-4.8222
X21.0856Y-5.0722
X21.0856Y-5.1722
X21.0856Y-5.2722
X21.0856Y-5.3722
X21.0856Y-5.6222
X21.0856Y-5.7222
X21.0856Y-5.8222
X21.0856Y-5.9222
X21.0856Y-6.1922
X21.0856Y-6.2922
X21.0856Y-6.3922
X21.0856Y-6.4922
X21.0856Y-6.7322
X21.0856Y-6.8322
X21.0856Y-6.9322
X21.0856Y-7.0322
X21.0856Y-7.2722
X21.0856Y-7.3722
X21.0856Y-7.4722
X21.0856Y-7.5722
X21.0892Y-1.1119
X21.0892Y-1.2119
X21.0892Y-1.3119
X21.0892Y-1.4119
X21.0892Y-1.5119
X21.0892Y-1.6119
X21.0892Y-1.7119
X21.0892Y-1.8119
X21.0892Y-1.9119
X21.0892Y-2.0119
X21.0892Y-2.1119
X21.0892Y-2.2119
X21.0892Y-2.4433
X21.0892Y-2.5433
X21.0892Y-2.6433
X21.0892Y-2.7433
X21.0908Y-2.9784
X21.0908Y-3.0784
X21.0908Y-3.1784
X21.0908Y-3.2784
X21.0908Y-3.3784
X21.0908Y-3.4784
X21.0908Y-3.5784
X21.0908Y-3.6784
X21.0908Y-3.7784
X21.0908Y-3.8784
X21.0908Y-3.9784
X21.0908Y-4.0784
X21.2856Y-4.3222
X21.2856Y-4.4222
X21.2856Y-4.5222
X21.2856Y-4.6222
X21.2856Y-4.7222
X21.2856Y-4.8222
X21.2856Y-5.0722
X21.2856Y-5.1722
X21.2856Y-5.2722
X21.2856Y-5.3722
X21.2856Y-5.6222
X21.2856Y-5.7222
X21.2856Y-5.8222
X21.2856Y-5.9222
X21.2856Y-6.1922
X21.2856Y-6.2922
X21.2856Y-6.3922
X21.2856Y-6.4922
X21.2856Y-6.7322
X21.2856Y-6.8322
X21.2856Y-6.9322
X21.2856Y-7.0322
X21.2856Y-7.2722
X21.2856Y-7.3722
X21.2856Y-7.4722
X21.2856Y-7.5722
X21.2892Y-1.1119
X21.2892Y-1.2119
X21.2892Y-1.3119
X21.2892Y-1.4119
X21.2892Y-1.5119
X21.2892Y-1.6119
X21.2892Y-1.7119
X21.2892Y-1.8119
X21.2892Y-1.9119
X21.2892Y-2.0119
X21.2892Y-2.1119
X21.2892Y-2.2119
X21.2892Y-2.4433
X21.2892Y-2.5433
X21.2892Y-2.6433
X21.2892Y-2.7433
X21.2908Y-2.9784
X21.2908Y-3.0784
X21.2908Y-3.1784
X21.2908Y-3.2784
X21.2908Y-3.3784
X21.2908Y-3.4784
X21.2908Y-3.5784
X21.2908Y-3.6784
X21.2908Y-3.7784
X21.2908Y-3.8784
X21.2908Y-3.9784
X21.2908Y-4.0784
T6
X18.053Y-1.8611
X18.053Y-2.4517
X18.053Y-2.6485
X18.053Y-2.8454
X18.053Y-3.0491
X18.053Y-3.246
X18.053Y-3.4428
X18.053Y-4.0334
X18.0695Y-4.3346
X18.0695Y-4.6299
X18.0695Y-4.8746
X18.0695Y-5.1699
X18.0695Y-5.4146
X18.0695Y-5.7099
X18.0695Y-5.9546
X18.0695Y-6.2499
X18.0695Y-6.4946
X18.0695Y-6.7899
X18.3483Y-1.8611
X18.3483Y-2.4517
X18.3483Y-2.6485
X18.3483Y-2.8454
X18.3483Y-3.0491
X18.3483Y-3.246
X18.3483Y-3.4428
X18.3483Y-4.0334
X18.593Y-1.8611
X18.593Y-2.4517
X18.593Y-2.6485
X18.593Y-2.8454
X18.593Y-3.0491
X18.593Y-3.246
X18.593Y-3.4428
X18.593Y-4.0334
X18.6601Y-4.3346
X18.6601Y-4.6299
X18.6601Y-4.8746
X18.6601Y-5.1699
X18.6601Y-5.4146
X18.6601Y-5.7099
X18.6601Y-5.9546
X18.6601Y-6.2499
X18.6601Y-6.4946
X18.6601Y-6.7899
X18.8569Y-4.3346
X18.8569Y-4.6299
X18.8569Y-4.8746
X18.8569Y-5.1699
X18.8569Y-5.4146
X18.8569Y-5.7099
X18.8569Y-5.9546
X18.8569Y-6.2499
X18.8569Y-6.4946
X18.8569Y-6.7899
X18.8883Y-1.8611
X18.8883Y-2.4517
X18.8883Y-2.6485
X18.8883Y-2.8454
X18.8883Y-3.0491
X18.8883Y-3.246
X18.8883Y-3.4428
X18.8883Y-4.0334
X19.0538Y-4.3346
X19.0538Y-4.6299
X19.0538Y-4.8746
X19.0538Y-5.1699
X19.0538Y-5.4146
X19.0538Y-5.7099
X19.0538Y-5.9546
X19.0538Y-6.2499
X19.0538Y-6.4946
X19.0538Y-6.7899
X19.133Y-1.8611
X19.133Y-2.4517
X19.133Y-2.6485
X19.133Y-2.8454
X19.133Y-3.0491
X19.133Y-3.246
X19.133Y-3.4428
X19.133Y-4.0334
X19.2686Y-6.5591
X19.2686Y-6.756
X19.2686Y-6.9528
X19.2686Y-7.5434
X19.4283Y-1.8611
X19.4283Y-2.4517
X19.4283Y-2.6485
X19.4283Y-2.8454
X19.4283Y-3.0491
X19.4283Y-3.246
X19.4283Y-3.4428
X19.4283Y-4.0334
X19.5639Y-6.5591
X19.5639Y-6.756
X19.5639Y-6.9528
X19.5639Y-7.5434
X19.673Y-1.8611
X19.673Y-2.4517
X19.673Y-2.6485
X19.673Y-2.8454
X19.673Y-3.0491
X19.673Y-3.246
X19.673Y-3.4428
X19.673Y-4.0334
X19.803Y-6.5591
X19.803Y-6.756
X19.803Y-6.9528
X19.803Y-7.5434
X19.9683Y-1.8611
X19.9683Y-2.4517
X19.9683Y-2.6485
X19.9683Y-2.8454
X19.9683Y-3.0491
X19.9683Y-3.246
X19.9683Y-3.4428
X19.9683Y-4.0334
X20.0983Y-6.5591
X20.0983Y-6.756
X20.0983Y-6.9528
X20.0983Y-7.5434
X20.343Y-6.5591
X20.343Y-6.756
X20.343Y-6.9528
X20.343Y-7.5434
X20.6383Y-6.5591
X20.6383Y-6.756
X20.6383Y-6.9528
X20.6383Y-7.5434
M30
