%TF.GenerationSoftware,KiCad,Pcbnew,8.0.1*%
%TF.CreationDate,2025-01-31T20:34:05-05:00*%
%TF.ProjectId,brake control module,6272616b-6520-4636-9f6e-74726f6c206d,rev?*%
%TF.SameCoordinates,Original*%
%TF.FileFunction,Legend,Bot*%
%TF.FilePolarity,Positive*%
%FSLAX46Y46*%
G04 Gerber Fmt 4.6, Leading zero omitted, Abs format (unit mm)*
G04 Created by KiCad (PCBNEW 8.0.1) date 2025-01-31 20:34:05*
%MOMM*%
%LPD*%
G01*
G04 APERTURE LIST*
%ADD10C,0.120000*%
G04 APERTURE END LIST*
D10*
%TO.C,U22*%
X466700000Y-27940000D02*
X464750000Y-27940000D01*
X462800000Y-27940000D02*
X464750000Y-27940000D01*
X466700000Y-38060000D02*
X464750000Y-38060000D01*
X462800000Y-38060000D02*
X464750000Y-38060000D01*
X467450000Y-27995000D02*
X467210000Y-27665000D01*
X467690000Y-27665000D01*
X467450000Y-27995000D01*
G36*
X467450000Y-27995000D02*
G01*
X467210000Y-27665000D01*
X467690000Y-27665000D01*
X467450000Y-27995000D01*
G37*
%TO.C,U21*%
X516700000Y-6995000D02*
X516460000Y-6665000D01*
X516940000Y-6665000D01*
X516700000Y-6995000D01*
G36*
X516700000Y-6995000D02*
G01*
X516460000Y-6665000D01*
X516940000Y-6665000D01*
X516700000Y-6995000D01*
G37*
X512050000Y-17060000D02*
X514000000Y-17060000D01*
X515950000Y-17060000D02*
X514000000Y-17060000D01*
X512050000Y-6940000D02*
X514000000Y-6940000D01*
X515950000Y-6940000D02*
X514000000Y-6940000D01*
%TO.C,U20*%
X499700000Y-3690000D02*
X497750000Y-3690000D01*
X495800000Y-3690000D02*
X497750000Y-3690000D01*
X499700000Y-13810000D02*
X497750000Y-13810000D01*
X495800000Y-13810000D02*
X497750000Y-13810000D01*
X500450000Y-3745000D02*
X500210000Y-3415000D01*
X500690000Y-3415000D01*
X500450000Y-3745000D01*
G36*
X500450000Y-3745000D02*
G01*
X500210000Y-3415000D01*
X500690000Y-3415000D01*
X500450000Y-3745000D01*
G37*
%TO.C,U19*%
X469060000Y-21450000D02*
X469060000Y-19500000D01*
X469060000Y-17550000D02*
X469060000Y-19500000D01*
X458940000Y-21450000D02*
X458940000Y-19500000D01*
X458940000Y-17550000D02*
X458940000Y-19500000D01*
X469335000Y-22440000D02*
X469005000Y-22200000D01*
X469335000Y-21960000D01*
X469335000Y-22440000D01*
G36*
X469335000Y-22440000D02*
G01*
X469005000Y-22200000D01*
X469335000Y-21960000D01*
X469335000Y-22440000D01*
G37*
%TO.C,U42*%
X493560000Y-21950000D02*
X493560000Y-20000000D01*
X493560000Y-18050000D02*
X493560000Y-20000000D01*
X483440000Y-21950000D02*
X483440000Y-20000000D01*
X483440000Y-18050000D02*
X483440000Y-20000000D01*
X493835000Y-22940000D02*
X493505000Y-22700000D01*
X493835000Y-22460000D01*
X493835000Y-22940000D01*
G36*
X493835000Y-22940000D02*
G01*
X493505000Y-22700000D01*
X493835000Y-22460000D01*
X493835000Y-22940000D01*
G37*
%TO.C,U41*%
X505560000Y-21950000D02*
X505560000Y-20000000D01*
X505560000Y-18050000D02*
X505560000Y-20000000D01*
X495440000Y-21950000D02*
X495440000Y-20000000D01*
X495440000Y-18050000D02*
X495440000Y-20000000D01*
X505835000Y-22940000D02*
X505505000Y-22700000D01*
X505835000Y-22460000D01*
X505835000Y-22940000D01*
G36*
X505835000Y-22940000D02*
G01*
X505505000Y-22700000D01*
X505835000Y-22460000D01*
X505835000Y-22940000D01*
G37*
%TO.C,R95*%
X503727064Y-15485000D02*
X503272936Y-15485000D01*
X503727064Y-14015000D02*
X503272936Y-14015000D01*
%TO.C,C16*%
X481990000Y-20140580D02*
X481990000Y-19859420D01*
X483010000Y-20140580D02*
X483010000Y-19859420D01*
%TO.C,C15*%
X493990000Y-20140580D02*
X493990000Y-19859420D01*
X495010000Y-20140580D02*
X495010000Y-19859420D01*
%TO.C,D5*%
X456184387Y-149537000D02*
X456184387Y-153397000D01*
X454184387Y-153397000D02*
X456184387Y-153397000D01*
X454184387Y-149537000D02*
X454184387Y-153397000D01*
%TO.C,D6*%
X456184387Y-163253000D02*
X456184387Y-167113000D01*
X454184387Y-167113000D02*
X456184387Y-167113000D01*
X454184387Y-163253000D02*
X454184387Y-167113000D01*
%TO.C,R37*%
X528534051Y-82361000D02*
X527079923Y-82361000D01*
X528534051Y-84181000D02*
X527079923Y-84181000D01*
%TO.C,R10*%
X476547387Y-55963936D02*
X476547387Y-56418064D01*
X478017387Y-55963936D02*
X478017387Y-56418064D01*
%TO.C,R14*%
X503979387Y-55963936D02*
X503979387Y-56418064D01*
X505449387Y-55963936D02*
X505449387Y-56418064D01*
%TO.C,R89*%
X470977064Y-26985000D02*
X470522936Y-26985000D01*
X470977064Y-25515000D02*
X470522936Y-25515000D01*
%TO.C,R33*%
X528524451Y-102697000D02*
X527070323Y-102697000D01*
X528524451Y-104517000D02*
X527070323Y-104517000D01*
%TO.C,U14*%
X457446387Y-180765000D02*
X459756387Y-180765000D01*
X457446387Y-180980000D02*
X457446387Y-180765000D01*
X457446387Y-183370000D02*
X457446387Y-183585000D01*
X457446387Y-183585000D02*
X459756387Y-183585000D01*
X462066387Y-180765000D02*
X459756387Y-180765000D01*
X462066387Y-180980000D02*
X462066387Y-180765000D01*
X462066387Y-183370000D02*
X462066387Y-183585000D01*
X462066387Y-183585000D02*
X459756387Y-183585000D01*
X462856387Y-180980000D02*
X462616387Y-180650000D01*
X463096387Y-180650000D01*
X462856387Y-180980000D01*
G36*
X462856387Y-180980000D02*
G01*
X462616387Y-180650000D01*
X463096387Y-180650000D01*
X462856387Y-180980000D01*
G37*
%TO.C,U37*%
X514936387Y-33143000D02*
X517246387Y-33143000D01*
X519556387Y-33143000D02*
X517246387Y-33143000D01*
X514936387Y-32928000D02*
X514936387Y-33143000D01*
X519556387Y-32928000D02*
X519556387Y-33143000D01*
X514936387Y-30538000D02*
X514936387Y-30323000D01*
X519556387Y-30538000D02*
X519556387Y-30323000D01*
X514936387Y-30323000D02*
X517246387Y-30323000D01*
X519556387Y-30323000D02*
X517246387Y-30323000D01*
X520346387Y-30538000D02*
X520106387Y-30208000D01*
X520586387Y-30208000D01*
X520346387Y-30538000D01*
G36*
X520346387Y-30538000D02*
G01*
X520106387Y-30208000D01*
X520586387Y-30208000D01*
X520346387Y-30538000D01*
G37*
%TO.C,R69*%
X464265000Y-25727064D02*
X464265000Y-25272936D01*
X465735000Y-25727064D02*
X465735000Y-25272936D01*
%TO.C,U2*%
X456684387Y-153587000D02*
X458994387Y-153587000D01*
X456684387Y-153802000D02*
X456684387Y-153587000D01*
X456684387Y-156192000D02*
X456684387Y-156407000D01*
X456684387Y-156407000D02*
X458994387Y-156407000D01*
X461304387Y-153587000D02*
X458994387Y-153587000D01*
X461304387Y-153802000D02*
X461304387Y-153587000D01*
X461304387Y-156192000D02*
X461304387Y-156407000D01*
X461304387Y-156407000D02*
X458994387Y-156407000D01*
X462094387Y-153802000D02*
X461854387Y-153472000D01*
X462334387Y-153472000D01*
X462094387Y-153802000D01*
G36*
X462094387Y-153802000D02*
G01*
X461854387Y-153472000D01*
X462334387Y-153472000D01*
X462094387Y-153802000D01*
G37*
%TO.C,R49*%
X528244323Y-41236000D02*
X528698451Y-41236000D01*
X528244323Y-42706000D02*
X528698451Y-42706000D01*
%TO.C,R58*%
X528244323Y-31736000D02*
X528698451Y-31736000D01*
X528244323Y-33206000D02*
X528698451Y-33206000D01*
%TO.C,R17*%
X462831387Y-93301936D02*
X462831387Y-93756064D01*
X464301387Y-93301936D02*
X464301387Y-93756064D01*
%TO.C,R72*%
X504227064Y-10485000D02*
X503772936Y-10485000D01*
X504227064Y-9015000D02*
X503772936Y-9015000D01*
%TO.C,D25*%
X525500387Y-54135000D02*
X521640387Y-54135000D01*
X521640387Y-52135000D02*
X521640387Y-54135000D01*
X525500387Y-52135000D02*
X521640387Y-52135000D01*
%TO.C,U13*%
X457446387Y-177463000D02*
X459756387Y-177463000D01*
X457446387Y-177678000D02*
X457446387Y-177463000D01*
X457446387Y-180068000D02*
X457446387Y-180283000D01*
X457446387Y-180283000D02*
X459756387Y-180283000D01*
X462066387Y-177463000D02*
X459756387Y-177463000D01*
X462066387Y-177678000D02*
X462066387Y-177463000D01*
X462066387Y-180068000D02*
X462066387Y-180283000D01*
X462066387Y-180283000D02*
X459756387Y-180283000D01*
X462856387Y-177678000D02*
X462616387Y-177348000D01*
X463096387Y-177348000D01*
X462856387Y-177678000D01*
G36*
X462856387Y-177678000D02*
G01*
X462616387Y-177348000D01*
X463096387Y-177348000D01*
X462856387Y-177678000D01*
G37*
%TO.C,D15*%
X464710387Y-178127000D02*
X468570387Y-178127000D01*
X464710387Y-180127000D02*
X468570387Y-180127000D01*
X468570387Y-180127000D02*
X468570387Y-178127000D01*
%TO.C,R70*%
X466265000Y-25727064D02*
X466265000Y-25272936D01*
X467735000Y-25727064D02*
X467735000Y-25272936D01*
%TO.C,R94*%
X454522936Y-34015000D02*
X454977064Y-34015000D01*
X454522936Y-35485000D02*
X454977064Y-35485000D01*
%TO.C,R5*%
X503979387Y-93301936D02*
X503979387Y-93756064D01*
X505449387Y-93301936D02*
X505449387Y-93756064D01*
%TO.C,C12*%
X492740000Y-4390580D02*
X492740000Y-4109420D01*
X493760000Y-4390580D02*
X493760000Y-4109420D01*
%TO.C,R46*%
X531800323Y-51396000D02*
X532254451Y-51396000D01*
X531800323Y-52866000D02*
X532254451Y-52866000D01*
%TO.C,U8*%
X474602387Y-45245000D02*
X474602387Y-47555000D01*
X474602387Y-49865000D02*
X474602387Y-47555000D01*
X474817387Y-45245000D02*
X474602387Y-45245000D01*
X474817387Y-49865000D02*
X474602387Y-49865000D01*
X477207387Y-45245000D02*
X477422387Y-45245000D01*
X477207387Y-49865000D02*
X477422387Y-49865000D01*
X477422387Y-45245000D02*
X477422387Y-47555000D01*
X477422387Y-49865000D02*
X477422387Y-47555000D01*
X477537387Y-50895000D02*
X477207387Y-50655000D01*
X477537387Y-50415000D01*
X477537387Y-50895000D01*
G36*
X477537387Y-50895000D02*
G01*
X477207387Y-50655000D01*
X477537387Y-50415000D01*
X477537387Y-50895000D01*
G37*
%TO.C,U1*%
X456938387Y-139871000D02*
X459248387Y-139871000D01*
X456938387Y-140086000D02*
X456938387Y-139871000D01*
X456938387Y-142476000D02*
X456938387Y-142691000D01*
X456938387Y-142691000D02*
X459248387Y-142691000D01*
X461558387Y-139871000D02*
X459248387Y-139871000D01*
X461558387Y-140086000D02*
X461558387Y-139871000D01*
X461558387Y-142476000D02*
X461558387Y-142691000D01*
X461558387Y-142691000D02*
X459248387Y-142691000D01*
X462348387Y-140086000D02*
X462108387Y-139756000D01*
X462588387Y-139756000D01*
X462348387Y-140086000D01*
G36*
X462348387Y-140086000D02*
G01*
X462108387Y-139756000D01*
X462588387Y-139756000D01*
X462348387Y-140086000D01*
G37*
%TO.C,D10*%
X474362387Y-52143000D02*
X478222387Y-52143000D01*
X474362387Y-54143000D02*
X478222387Y-54143000D01*
X478222387Y-54143000D02*
X478222387Y-52143000D01*
%TO.C,R90*%
X470977064Y-24985000D02*
X470522936Y-24985000D01*
X470977064Y-23515000D02*
X470522936Y-23515000D01*
%TO.C,U17*%
X519052387Y-187485000D02*
X519052387Y-189795000D01*
X519052387Y-192105000D02*
X519052387Y-189795000D01*
X519267387Y-187485000D02*
X519052387Y-187485000D01*
X519267387Y-192105000D02*
X519052387Y-192105000D01*
X521657387Y-187485000D02*
X521872387Y-187485000D01*
X521657387Y-192105000D02*
X521872387Y-192105000D01*
X521872387Y-187485000D02*
X521872387Y-189795000D01*
X521872387Y-192105000D02*
X521872387Y-189795000D01*
X519267387Y-186695000D02*
X518937387Y-186935000D01*
X518937387Y-186455000D01*
X519267387Y-186695000D01*
G36*
X519267387Y-186695000D02*
G01*
X518937387Y-186935000D01*
X518937387Y-186455000D01*
X519267387Y-186695000D01*
G37*
%TO.C,R12*%
X490263387Y-55963936D02*
X490263387Y-56418064D01*
X491733387Y-55963936D02*
X491733387Y-56418064D01*
%TO.C,R85*%
X508272936Y-12765000D02*
X508727064Y-12765000D01*
X508272936Y-14235000D02*
X508727064Y-14235000D01*
%TO.C,R43*%
X528244323Y-48856000D02*
X528698451Y-48856000D01*
X528244323Y-50326000D02*
X528698451Y-50326000D01*
%TO.C,U26*%
X514936387Y-64643000D02*
X517246387Y-64643000D01*
X519556387Y-64643000D02*
X517246387Y-64643000D01*
X514936387Y-64428000D02*
X514936387Y-64643000D01*
X519556387Y-64428000D02*
X519556387Y-64643000D01*
X514936387Y-62038000D02*
X514936387Y-61823000D01*
X519556387Y-62038000D02*
X519556387Y-61823000D01*
X514936387Y-61823000D02*
X517246387Y-61823000D01*
X519556387Y-61823000D02*
X517246387Y-61823000D01*
X520346387Y-62038000D02*
X520106387Y-61708000D01*
X520586387Y-61708000D01*
X520346387Y-62038000D01*
G36*
X520346387Y-62038000D02*
G01*
X520106387Y-61708000D01*
X520586387Y-61708000D01*
X520346387Y-62038000D01*
G37*
%TO.C,D11*%
X488078387Y-52143000D02*
X491938387Y-52143000D01*
X488078387Y-54143000D02*
X491938387Y-54143000D01*
X491938387Y-54143000D02*
X491938387Y-52143000D01*
%TO.C,U36*%
X514936387Y-26539000D02*
X517246387Y-26539000D01*
X519556387Y-26539000D02*
X517246387Y-26539000D01*
X514936387Y-26324000D02*
X514936387Y-26539000D01*
X519556387Y-26324000D02*
X519556387Y-26539000D01*
X514936387Y-23934000D02*
X514936387Y-23719000D01*
X519556387Y-23934000D02*
X519556387Y-23719000D01*
X514936387Y-23719000D02*
X517246387Y-23719000D01*
X519556387Y-23719000D02*
X517246387Y-23719000D01*
X520346387Y-23934000D02*
X520106387Y-23604000D01*
X520586387Y-23604000D01*
X520346387Y-23934000D01*
G36*
X520346387Y-23934000D02*
G01*
X520106387Y-23604000D01*
X520586387Y-23604000D01*
X520346387Y-23934000D01*
G37*
%TO.C,R29*%
X520235323Y-179154000D02*
X520689451Y-179154000D01*
X520235323Y-180624000D02*
X520689451Y-180624000D01*
%TO.C,R27*%
X506519323Y-179154000D02*
X506973451Y-179154000D01*
X506519323Y-180624000D02*
X506973451Y-180624000D01*
%TO.C,U5*%
X495440000Y-29450000D02*
X495440000Y-27500000D01*
X505560000Y-29450000D02*
X505560000Y-27500000D01*
X495440000Y-25550000D02*
X495440000Y-27500000D01*
X505560000Y-25550000D02*
X505560000Y-27500000D01*
X495495000Y-24800000D02*
X495165000Y-25040000D01*
X495165000Y-24560000D01*
X495495000Y-24800000D01*
G36*
X495495000Y-24800000D02*
G01*
X495165000Y-25040000D01*
X495165000Y-24560000D01*
X495495000Y-24800000D01*
G37*
%TO.C,U9*%
X488318387Y-45245000D02*
X488318387Y-47555000D01*
X488318387Y-49865000D02*
X488318387Y-47555000D01*
X488533387Y-45245000D02*
X488318387Y-45245000D01*
X488533387Y-49865000D02*
X488318387Y-49865000D01*
X490923387Y-45245000D02*
X491138387Y-45245000D01*
X490923387Y-49865000D02*
X491138387Y-49865000D01*
X491138387Y-45245000D02*
X491138387Y-47555000D01*
X491138387Y-49865000D02*
X491138387Y-47555000D01*
X491253387Y-50895000D02*
X490923387Y-50655000D01*
X491253387Y-50415000D01*
X491253387Y-50895000D01*
G36*
X491253387Y-50895000D02*
G01*
X490923387Y-50655000D01*
X491253387Y-50415000D01*
X491253387Y-50895000D01*
G37*
%TO.C,R41*%
X531800323Y-56476000D02*
X532254451Y-56476000D01*
X531800323Y-57946000D02*
X532254451Y-57946000D01*
%TO.C,R20*%
X468419323Y-167470000D02*
X468873451Y-167470000D01*
X468419323Y-168940000D02*
X468873451Y-168940000D01*
%TO.C,C3*%
X530663387Y-91449748D02*
X530663387Y-92872252D01*
X533383387Y-91449748D02*
X533383387Y-92872252D01*
%TO.C,R55*%
X528244323Y-24116000D02*
X528698451Y-24116000D01*
X528244323Y-25586000D02*
X528698451Y-25586000D01*
%TO.C,R53*%
X531800323Y-41236000D02*
X532254451Y-41236000D01*
X531800323Y-42706000D02*
X532254451Y-42706000D01*
%TO.C,U32*%
X514936387Y-44893000D02*
X517246387Y-44893000D01*
X519556387Y-44893000D02*
X517246387Y-44893000D01*
X514936387Y-44678000D02*
X514936387Y-44893000D01*
X519556387Y-44678000D02*
X519556387Y-44893000D01*
X514936387Y-42288000D02*
X514936387Y-42073000D01*
X519556387Y-42288000D02*
X519556387Y-42073000D01*
X514936387Y-42073000D02*
X517246387Y-42073000D01*
X519556387Y-42073000D02*
X517246387Y-42073000D01*
X520346387Y-42288000D02*
X520106387Y-41958000D01*
X520586387Y-41958000D01*
X520346387Y-42288000D01*
G36*
X520346387Y-42288000D02*
G01*
X520106387Y-41958000D01*
X520586387Y-41958000D01*
X520346387Y-42288000D01*
G37*
%TO.C,D28*%
X525500387Y-47531000D02*
X521640387Y-47531000D01*
X521640387Y-45531000D02*
X521640387Y-47531000D01*
X525500387Y-45531000D02*
X521640387Y-45531000D01*
%TO.C,R50*%
X528244323Y-46316000D02*
X528698451Y-46316000D01*
X528244323Y-47786000D02*
X528698451Y-47786000D01*
%TO.C,R67*%
X460265000Y-25727064D02*
X460265000Y-25272936D01*
X461735000Y-25727064D02*
X461735000Y-25272936D01*
%TO.C,D19*%
X518252387Y-183207000D02*
X518252387Y-185207000D01*
X522112387Y-183207000D02*
X518252387Y-183207000D01*
X522112387Y-185207000D02*
X518252387Y-185207000D01*
%TO.C,D33*%
X525500387Y-25875000D02*
X521640387Y-25875000D01*
X521640387Y-23875000D02*
X521640387Y-25875000D01*
X525500387Y-23875000D02*
X521640387Y-23875000D01*
%TO.C,C2*%
X530663387Y-96529748D02*
X530663387Y-97952252D01*
X533383387Y-96529748D02*
X533383387Y-97952252D01*
%TO.C,R38*%
X528534051Y-77281000D02*
X527079923Y-77281000D01*
X528534051Y-79101000D02*
X527079923Y-79101000D01*
%TO.C,R62*%
X531800323Y-31736000D02*
X532254451Y-31736000D01*
X531800323Y-33206000D02*
X532254451Y-33206000D01*
%TO.C,D14*%
X460646387Y-52143000D02*
X464506387Y-52143000D01*
X460646387Y-54143000D02*
X464506387Y-54143000D01*
X464506387Y-54143000D02*
X464506387Y-52143000D01*
%TO.C,R23*%
X469181387Y-182201936D02*
X469181387Y-182656064D01*
X470651387Y-182201936D02*
X470651387Y-182656064D01*
%TO.C,U23*%
X457436387Y-187323000D02*
X459746387Y-187323000D01*
X457436387Y-187538000D02*
X457436387Y-187323000D01*
X457436387Y-189928000D02*
X457436387Y-190143000D01*
X457436387Y-190143000D02*
X459746387Y-190143000D01*
X462056387Y-187323000D02*
X459746387Y-187323000D01*
X462056387Y-187538000D02*
X462056387Y-187323000D01*
X462056387Y-189928000D02*
X462056387Y-190143000D01*
X462056387Y-190143000D02*
X459746387Y-190143000D01*
X462846387Y-187538000D02*
X462606387Y-187208000D01*
X463086387Y-187208000D01*
X462846387Y-187538000D01*
G36*
X462846387Y-187538000D02*
G01*
X462606387Y-187208000D01*
X463086387Y-187208000D01*
X462846387Y-187538000D01*
G37*
%TO.C,D13*%
X460086387Y-95577000D02*
X460086387Y-97577000D01*
X463946387Y-95577000D02*
X460086387Y-95577000D01*
X463946387Y-97577000D02*
X460086387Y-97577000D01*
%TO.C,C14*%
X459740000Y-29390580D02*
X459740000Y-29109420D01*
X460760000Y-29390580D02*
X460760000Y-29109420D01*
%TO.C,R78*%
X491272936Y-12015000D02*
X491727064Y-12015000D01*
X491272936Y-13485000D02*
X491727064Y-13485000D01*
%TO.C,U10*%
X502034387Y-45245000D02*
X502034387Y-47555000D01*
X502034387Y-49865000D02*
X502034387Y-47555000D01*
X502249387Y-45245000D02*
X502034387Y-45245000D01*
X502249387Y-49865000D02*
X502034387Y-49865000D01*
X504639387Y-45245000D02*
X504854387Y-45245000D01*
X504639387Y-49865000D02*
X504854387Y-49865000D01*
X504854387Y-45245000D02*
X504854387Y-47555000D01*
X504854387Y-49865000D02*
X504854387Y-47555000D01*
X504969387Y-50895000D02*
X504639387Y-50655000D01*
X504969387Y-50415000D01*
X504969387Y-50895000D01*
G36*
X504969387Y-50895000D02*
G01*
X504639387Y-50655000D01*
X504969387Y-50415000D01*
X504969387Y-50895000D01*
G37*
%TO.C,R93*%
X458977064Y-39985000D02*
X458522936Y-39985000D01*
X458977064Y-38515000D02*
X458522936Y-38515000D01*
%TO.C,D31*%
X525500387Y-22573000D02*
X521640387Y-22573000D01*
X521640387Y-20573000D02*
X521640387Y-22573000D01*
X525500387Y-20573000D02*
X521640387Y-20573000D01*
%TO.C,U35*%
X514936387Y-29841000D02*
X517246387Y-29841000D01*
X519556387Y-29841000D02*
X517246387Y-29841000D01*
X514936387Y-29626000D02*
X514936387Y-29841000D01*
X519556387Y-29626000D02*
X519556387Y-29841000D01*
X514936387Y-27236000D02*
X514936387Y-27021000D01*
X519556387Y-27236000D02*
X519556387Y-27021000D01*
X514936387Y-27021000D02*
X517246387Y-27021000D01*
X519556387Y-27021000D02*
X517246387Y-27021000D01*
X520346387Y-27236000D02*
X520106387Y-26906000D01*
X520586387Y-26906000D01*
X520346387Y-27236000D01*
G36*
X520346387Y-27236000D02*
G01*
X520106387Y-26906000D01*
X520586387Y-26906000D01*
X520346387Y-27236000D01*
G37*
%TO.C,D12*%
X501794387Y-52143000D02*
X505654387Y-52143000D01*
X501794387Y-54143000D02*
X505654387Y-54143000D01*
X505654387Y-54143000D02*
X505654387Y-52143000D01*
%TO.C,R35*%
X528534051Y-92521000D02*
X527079923Y-92521000D01*
X528534051Y-94341000D02*
X527079923Y-94341000D01*
%TO.C,R91*%
X457272936Y-31515000D02*
X457727064Y-31515000D01*
X457272936Y-32985000D02*
X457727064Y-32985000D01*
%TO.C,C11*%
X468609420Y-14490000D02*
X468890580Y-14490000D01*
X468609420Y-15510000D02*
X468890580Y-15510000D01*
%TO.C,U33*%
X514936387Y-51497000D02*
X517246387Y-51497000D01*
X519556387Y-51497000D02*
X517246387Y-51497000D01*
X514936387Y-51282000D02*
X514936387Y-51497000D01*
X519556387Y-51282000D02*
X519556387Y-51497000D01*
X514936387Y-48892000D02*
X514936387Y-48677000D01*
X519556387Y-48892000D02*
X519556387Y-48677000D01*
X514936387Y-48677000D02*
X517246387Y-48677000D01*
X519556387Y-48677000D02*
X517246387Y-48677000D01*
X520346387Y-48892000D02*
X520106387Y-48562000D01*
X520586387Y-48562000D01*
X520346387Y-48892000D01*
G36*
X520346387Y-48892000D02*
G01*
X520106387Y-48562000D01*
X520586387Y-48562000D01*
X520346387Y-48892000D01*
G37*
%TO.C,D24*%
X525500387Y-60729000D02*
X521640387Y-60729000D01*
X521640387Y-58729000D02*
X521640387Y-60729000D01*
X525500387Y-58729000D02*
X521640387Y-58729000D01*
%TO.C,R61*%
X531800323Y-26656000D02*
X532254451Y-26656000D01*
X531800323Y-28126000D02*
X532254451Y-28126000D01*
%TO.C,D22*%
X464700387Y-184685000D02*
X468560387Y-184685000D01*
X464700387Y-186685000D02*
X468560387Y-186685000D01*
X468560387Y-186685000D02*
X468560387Y-184685000D01*
%TO.C,D1*%
X457344387Y-126311000D02*
X461204387Y-126311000D01*
X457344387Y-128311000D02*
X461204387Y-128311000D01*
X461204387Y-128311000D02*
X461204387Y-126311000D01*
%TO.C,R40*%
X528244323Y-56476000D02*
X528698451Y-56476000D01*
X528244323Y-57946000D02*
X528698451Y-57946000D01*
%TO.C,R65*%
X466985000Y-13272936D02*
X466985000Y-13727064D01*
X465515000Y-13272936D02*
X465515000Y-13727064D01*
%TO.C,R6*%
X487723387Y-93756064D02*
X487723387Y-93301936D01*
X489193387Y-93756064D02*
X489193387Y-93301936D01*
%TO.C,R18*%
X462831387Y-55963936D02*
X462831387Y-56418064D01*
X464301387Y-55963936D02*
X464301387Y-56418064D01*
%TO.C,R11*%
X474007387Y-56418064D02*
X474007387Y-55963936D01*
X475477387Y-56418064D02*
X475477387Y-55963936D01*
%TO.C,D32*%
X525500387Y-29177000D02*
X521640387Y-29177000D01*
X521640387Y-27177000D02*
X521640387Y-29177000D01*
X525500387Y-27177000D02*
X521640387Y-27177000D01*
%TO.C,R60*%
X531800323Y-29196000D02*
X532254451Y-29196000D01*
X531800323Y-30666000D02*
X532254451Y-30666000D01*
%TO.C,R3*%
X463085323Y-171788000D02*
X463539451Y-171788000D01*
X463085323Y-173258000D02*
X463539451Y-173258000D01*
%TO.C,R68*%
X462265000Y-25727064D02*
X462265000Y-25272936D01*
X463735000Y-25727064D02*
X463735000Y-25272936D01*
%TO.C,R13*%
X487723387Y-56418064D02*
X487723387Y-55963936D01*
X489193387Y-56418064D02*
X489193387Y-55963936D01*
%TO.C,R36*%
X528559451Y-87466400D02*
X527105323Y-87466400D01*
X528559451Y-89286400D02*
X527105323Y-89286400D01*
%TO.C,U11*%
X460886387Y-99855000D02*
X460886387Y-102165000D01*
X460886387Y-104475000D02*
X460886387Y-102165000D01*
X461101387Y-99855000D02*
X460886387Y-99855000D01*
X461101387Y-104475000D02*
X460886387Y-104475000D01*
X463491387Y-99855000D02*
X463706387Y-99855000D01*
X463491387Y-104475000D02*
X463706387Y-104475000D01*
X463706387Y-99855000D02*
X463706387Y-102165000D01*
X463706387Y-104475000D02*
X463706387Y-102165000D01*
X461101387Y-99065000D02*
X460771387Y-99305000D01*
X460771387Y-98825000D01*
X461101387Y-99065000D01*
G36*
X461101387Y-99065000D02*
G01*
X460771387Y-99305000D01*
X460771387Y-98825000D01*
X461101387Y-99065000D01*
G37*
%TO.C,U30*%
X514936387Y-41591000D02*
X517246387Y-41591000D01*
X519556387Y-41591000D02*
X517246387Y-41591000D01*
X514936387Y-41376000D02*
X514936387Y-41591000D01*
X519556387Y-41376000D02*
X519556387Y-41591000D01*
X514936387Y-38986000D02*
X514936387Y-38771000D01*
X519556387Y-38986000D02*
X519556387Y-38771000D01*
X514936387Y-38771000D02*
X517246387Y-38771000D01*
X519556387Y-38771000D02*
X517246387Y-38771000D01*
X520346387Y-38986000D02*
X520106387Y-38656000D01*
X520586387Y-38656000D01*
X520346387Y-38986000D01*
G36*
X520346387Y-38986000D02*
G01*
X520106387Y-38656000D01*
X520586387Y-38656000D01*
X520346387Y-38986000D01*
G37*
%TO.C,D20*%
X464700387Y-187987000D02*
X468560387Y-187987000D01*
X464700387Y-189987000D02*
X468560387Y-189987000D01*
X468560387Y-189987000D02*
X468560387Y-187987000D01*
%TO.C,D7*%
X501234387Y-95577000D02*
X501234387Y-97577000D01*
X505094387Y-95577000D02*
X501234387Y-95577000D01*
X505094387Y-97577000D02*
X501234387Y-97577000D01*
%TO.C,R47*%
X528244323Y-38696000D02*
X528698451Y-38696000D01*
X528244323Y-40166000D02*
X528698451Y-40166000D01*
%TO.C,R4*%
X502909387Y-93756064D02*
X502909387Y-93301936D01*
X501439387Y-93756064D02*
X501439387Y-93301936D01*
%TO.C,R48*%
X528244323Y-43776000D02*
X528698451Y-43776000D01*
X528244323Y-45246000D02*
X528698451Y-45246000D01*
%TO.C,C7*%
X507010000Y-27359420D02*
X507010000Y-27640580D01*
X505990000Y-27359420D02*
X505990000Y-27640580D01*
%TO.C,U18*%
X483440000Y-29450000D02*
X483440000Y-27500000D01*
X493560000Y-29450000D02*
X493560000Y-27500000D01*
X483440000Y-25550000D02*
X483440000Y-27500000D01*
X493560000Y-25550000D02*
X493560000Y-27500000D01*
X483495000Y-24800000D02*
X483165000Y-25040000D01*
X483165000Y-24560000D01*
X483495000Y-24800000D01*
G36*
X483495000Y-24800000D02*
G01*
X483165000Y-25040000D01*
X483165000Y-24560000D01*
X483495000Y-24800000D01*
G37*
%TO.C,R22*%
X482643387Y-181386064D02*
X482643387Y-180931936D01*
X484113387Y-181386064D02*
X484113387Y-180931936D01*
%TO.C,R64*%
X462985000Y-13272936D02*
X462985000Y-13727064D01*
X461515000Y-13272936D02*
X461515000Y-13727064D01*
%TO.C,U31*%
X514936387Y-48195000D02*
X517246387Y-48195000D01*
X519556387Y-48195000D02*
X517246387Y-48195000D01*
X514936387Y-47980000D02*
X514936387Y-48195000D01*
X519556387Y-47980000D02*
X519556387Y-48195000D01*
X514936387Y-45590000D02*
X514936387Y-45375000D01*
X519556387Y-45590000D02*
X519556387Y-45375000D01*
X514936387Y-45375000D02*
X517246387Y-45375000D01*
X519556387Y-45375000D02*
X517246387Y-45375000D01*
X520346387Y-45590000D02*
X520106387Y-45260000D01*
X520586387Y-45260000D01*
X520346387Y-45590000D01*
G36*
X520346387Y-45590000D02*
G01*
X520106387Y-45260000D01*
X520586387Y-45260000D01*
X520346387Y-45590000D01*
G37*
%TO.C,R32*%
X531919323Y-183980000D02*
X532373451Y-183980000D01*
X531919323Y-185450000D02*
X532373451Y-185450000D01*
%TO.C,U6*%
X488318387Y-99855000D02*
X488318387Y-102165000D01*
X488318387Y-104475000D02*
X488318387Y-102165000D01*
X488533387Y-99855000D02*
X488318387Y-99855000D01*
X488533387Y-104475000D02*
X488318387Y-104475000D01*
X490923387Y-99855000D02*
X491138387Y-99855000D01*
X490923387Y-104475000D02*
X491138387Y-104475000D01*
X491138387Y-99855000D02*
X491138387Y-102165000D01*
X491138387Y-104475000D02*
X491138387Y-102165000D01*
X488533387Y-99065000D02*
X488203387Y-99305000D01*
X488203387Y-98825000D01*
X488533387Y-99065000D01*
G36*
X488533387Y-99065000D02*
G01*
X488203387Y-99305000D01*
X488203387Y-98825000D01*
X488533387Y-99065000D01*
G37*
%TO.C,R73*%
X504227064Y-8485000D02*
X503772936Y-8485000D01*
X504227064Y-7015000D02*
X503772936Y-7015000D01*
%TO.C,U24*%
X457436387Y-190625000D02*
X459746387Y-190625000D01*
X457436387Y-190840000D02*
X457436387Y-190625000D01*
X457436387Y-193230000D02*
X457436387Y-193445000D01*
X457436387Y-193445000D02*
X459746387Y-193445000D01*
X462056387Y-190625000D02*
X459746387Y-190625000D01*
X462056387Y-190840000D02*
X462056387Y-190625000D01*
X462056387Y-193230000D02*
X462056387Y-193445000D01*
X462056387Y-193445000D02*
X459746387Y-193445000D01*
X462846387Y-190840000D02*
X462606387Y-190510000D01*
X463086387Y-190510000D01*
X462846387Y-190840000D01*
G36*
X462846387Y-190840000D02*
G01*
X462606387Y-190510000D01*
X463086387Y-190510000D01*
X462846387Y-190840000D01*
G37*
%TO.C,D23*%
X525500387Y-63979000D02*
X521640387Y-63979000D01*
X521640387Y-61979000D02*
X521640387Y-63979000D01*
X525500387Y-61979000D02*
X521640387Y-61979000D01*
%TO.C,D8*%
X487518387Y-95577000D02*
X487518387Y-97577000D01*
X491378387Y-95577000D02*
X487518387Y-95577000D01*
X491378387Y-97577000D02*
X487518387Y-97577000D01*
%TO.C,D17*%
X490820387Y-183207000D02*
X490820387Y-185207000D01*
X494680387Y-183207000D02*
X490820387Y-183207000D01*
X494680387Y-185207000D02*
X490820387Y-185207000D01*
%TO.C,R30*%
X531919323Y-156548000D02*
X532373451Y-156548000D01*
X531919323Y-158018000D02*
X532373451Y-158018000D01*
%TO.C,R79*%
X521477064Y-19235000D02*
X521022936Y-19235000D01*
X521477064Y-17765000D02*
X521022936Y-17765000D01*
%TO.C,U16*%
X505336387Y-187485000D02*
X505336387Y-189795000D01*
X505336387Y-192105000D02*
X505336387Y-189795000D01*
X505551387Y-187485000D02*
X505336387Y-187485000D01*
X505551387Y-192105000D02*
X505336387Y-192105000D01*
X507941387Y-187485000D02*
X508156387Y-187485000D01*
X507941387Y-192105000D02*
X508156387Y-192105000D01*
X508156387Y-187485000D02*
X508156387Y-189795000D01*
X508156387Y-192105000D02*
X508156387Y-189795000D01*
X505551387Y-186695000D02*
X505221387Y-186935000D01*
X505221387Y-186455000D01*
X505551387Y-186695000D01*
G36*
X505551387Y-186695000D02*
G01*
X505221387Y-186935000D01*
X505221387Y-186455000D01*
X505551387Y-186695000D01*
G37*
%TO.C,R82*%
X521477064Y-12485000D02*
X521022936Y-12485000D01*
X521477064Y-11015000D02*
X521022936Y-11015000D01*
%TO.C,R34*%
X528534051Y-97626400D02*
X527079923Y-97626400D01*
X528534051Y-99446400D02*
X527079923Y-99446400D01*
%TO.C,R15*%
X501439387Y-56418064D02*
X501439387Y-55963936D01*
X502909387Y-56418064D02*
X502909387Y-55963936D01*
%TO.C,R51*%
X531800323Y-38696000D02*
X532254451Y-38696000D01*
X531800323Y-40166000D02*
X532254451Y-40166000D01*
%TO.C,D30*%
X525500387Y-50833000D02*
X521640387Y-50833000D01*
X521640387Y-48833000D02*
X521640387Y-50833000D01*
X525500387Y-48833000D02*
X521640387Y-48833000D01*
%TO.C,U28*%
X514936387Y-54799000D02*
X517246387Y-54799000D01*
X519556387Y-54799000D02*
X517246387Y-54799000D01*
X514936387Y-54584000D02*
X514936387Y-54799000D01*
X519556387Y-54584000D02*
X519556387Y-54799000D01*
X514936387Y-52194000D02*
X514936387Y-51979000D01*
X519556387Y-52194000D02*
X519556387Y-51979000D01*
X514936387Y-51979000D02*
X517246387Y-51979000D01*
X519556387Y-51979000D02*
X517246387Y-51979000D01*
X520346387Y-52194000D02*
X520106387Y-51864000D01*
X520586387Y-51864000D01*
X520346387Y-52194000D01*
G36*
X520346387Y-52194000D02*
G01*
X520106387Y-51864000D01*
X520586387Y-51864000D01*
X520346387Y-52194000D01*
G37*
%TO.C,D34*%
X525500387Y-32479000D02*
X521640387Y-32479000D01*
X521640387Y-30479000D02*
X521640387Y-32479000D01*
X525500387Y-30479000D02*
X521640387Y-30479000D01*
%TO.C,R9*%
X476547387Y-93301936D02*
X476547387Y-93756064D01*
X478017387Y-93301936D02*
X478017387Y-93756064D01*
%TO.C,R28*%
X532373451Y-159088000D02*
X531919323Y-159088000D01*
X532373451Y-160558000D02*
X531919323Y-160558000D01*
%TO.C,C8*%
X495010000Y-27359420D02*
X495010000Y-27640580D01*
X493990000Y-27359420D02*
X493990000Y-27640580D01*
%TO.C,R16*%
X460291387Y-93756064D02*
X460291387Y-93301936D01*
X461761387Y-93756064D02*
X461761387Y-93301936D01*
%TO.C,R81*%
X521477064Y-14735000D02*
X521022936Y-14735000D01*
X521477064Y-13265000D02*
X521022936Y-13265000D01*
%TO.C,R42*%
X531800323Y-53936000D02*
X532254451Y-53936000D01*
X531800323Y-55406000D02*
X532254451Y-55406000D01*
%TO.C,U15*%
X491620387Y-187485000D02*
X491620387Y-189795000D01*
X491620387Y-192105000D02*
X491620387Y-189795000D01*
X491835387Y-187485000D02*
X491620387Y-187485000D01*
X491835387Y-192105000D02*
X491620387Y-192105000D01*
X494225387Y-187485000D02*
X494440387Y-187485000D01*
X494225387Y-192105000D02*
X494440387Y-192105000D01*
X494440387Y-187485000D02*
X494440387Y-189795000D01*
X494440387Y-192105000D02*
X494440387Y-189795000D01*
X491835387Y-186695000D02*
X491505387Y-186935000D01*
X491505387Y-186455000D01*
X491835387Y-186695000D01*
G36*
X491835387Y-186695000D02*
G01*
X491505387Y-186935000D01*
X491505387Y-186455000D01*
X491835387Y-186695000D01*
G37*
%TO.C,D16*%
X464710387Y-181429000D02*
X468570387Y-181429000D01*
X464710387Y-183429000D02*
X468570387Y-183429000D01*
X468570387Y-183429000D02*
X468570387Y-181429000D01*
%TO.C,D27*%
X525500387Y-40927000D02*
X521640387Y-40927000D01*
X521640387Y-38927000D02*
X521640387Y-40927000D01*
X525500387Y-38927000D02*
X521640387Y-38927000D01*
%TO.C,R86*%
X508272936Y-14765000D02*
X508727064Y-14765000D01*
X508272936Y-16235000D02*
X508727064Y-16235000D01*
%TO.C,U25*%
X457436387Y-184021000D02*
X459746387Y-184021000D01*
X457436387Y-184236000D02*
X457436387Y-184021000D01*
X457436387Y-186626000D02*
X457436387Y-186841000D01*
X457436387Y-186841000D02*
X459746387Y-186841000D01*
X462056387Y-184021000D02*
X459746387Y-184021000D01*
X462056387Y-184236000D02*
X462056387Y-184021000D01*
X462056387Y-186626000D02*
X462056387Y-186841000D01*
X462056387Y-186841000D02*
X459746387Y-186841000D01*
X462846387Y-184236000D02*
X462606387Y-183906000D01*
X463086387Y-183906000D01*
X462846387Y-184236000D01*
G36*
X462846387Y-184236000D02*
G01*
X462606387Y-183906000D01*
X463086387Y-183906000D01*
X462846387Y-184236000D01*
G37*
%TO.C,U29*%
X514936387Y-58101000D02*
X517246387Y-58101000D01*
X519556387Y-58101000D02*
X517246387Y-58101000D01*
X514936387Y-57886000D02*
X514936387Y-58101000D01*
X519556387Y-57886000D02*
X519556387Y-58101000D01*
X514936387Y-55496000D02*
X514936387Y-55281000D01*
X519556387Y-55496000D02*
X519556387Y-55281000D01*
X514936387Y-55281000D02*
X517246387Y-55281000D01*
X519556387Y-55281000D02*
X517246387Y-55281000D01*
X520346387Y-55496000D02*
X520106387Y-55166000D01*
X520586387Y-55166000D01*
X520346387Y-55496000D01*
G36*
X520346387Y-55496000D02*
G01*
X520106387Y-55166000D01*
X520586387Y-55166000D01*
X520346387Y-55496000D01*
G37*
%TO.C,R7*%
X490263387Y-93301936D02*
X490263387Y-93756064D01*
X491733387Y-93301936D02*
X491733387Y-93756064D01*
%TO.C,U12*%
X460886387Y-45245000D02*
X460886387Y-47555000D01*
X460886387Y-49865000D02*
X460886387Y-47555000D01*
X461101387Y-45245000D02*
X460886387Y-45245000D01*
X461101387Y-49865000D02*
X460886387Y-49865000D01*
X463491387Y-45245000D02*
X463706387Y-45245000D01*
X463491387Y-49865000D02*
X463706387Y-49865000D01*
X463706387Y-45245000D02*
X463706387Y-47555000D01*
X463706387Y-49865000D02*
X463706387Y-47555000D01*
X463821387Y-50895000D02*
X463491387Y-50655000D01*
X463821387Y-50415000D01*
X463821387Y-50895000D01*
G36*
X463821387Y-50895000D02*
G01*
X463491387Y-50655000D01*
X463821387Y-50415000D01*
X463821387Y-50895000D01*
G37*
%TO.C,C4*%
X530663387Y-86369748D02*
X530663387Y-87792252D01*
X533383387Y-86369748D02*
X533383387Y-87792252D01*
%TO.C,R52*%
X531800323Y-43776000D02*
X532254451Y-43776000D01*
X531800323Y-45246000D02*
X532254451Y-45246000D01*
%TO.C,R59*%
X531800323Y-24116000D02*
X532254451Y-24116000D01*
X531800323Y-25586000D02*
X532254451Y-25586000D01*
%TO.C,R71*%
X504227064Y-12485000D02*
X503772936Y-12485000D01*
X504227064Y-11015000D02*
X503772936Y-11015000D01*
%TO.C,R83*%
X521477064Y-10235000D02*
X521022936Y-10235000D01*
X521477064Y-8765000D02*
X521022936Y-8765000D01*
%TO.C,R74*%
X504227064Y-6485000D02*
X503772936Y-6485000D01*
X504227064Y-5015000D02*
X503772936Y-5015000D01*
%TO.C,D26*%
X525500387Y-57437000D02*
X521640387Y-57437000D01*
X521640387Y-55437000D02*
X521640387Y-57437000D01*
X525500387Y-55437000D02*
X521640387Y-55437000D01*
%TO.C,R54*%
X531800323Y-46316000D02*
X532254451Y-46316000D01*
X531800323Y-47786000D02*
X532254451Y-47786000D01*
%TO.C,R75*%
X491272936Y-6015000D02*
X491727064Y-6015000D01*
X491272936Y-7485000D02*
X491727064Y-7485000D01*
%TO.C,U4*%
X502034387Y-99855000D02*
X502034387Y-102165000D01*
X502034387Y-104475000D02*
X502034387Y-102165000D01*
X502249387Y-99855000D02*
X502034387Y-99855000D01*
X502249387Y-104475000D02*
X502034387Y-104475000D01*
X504639387Y-99855000D02*
X504854387Y-99855000D01*
X504639387Y-104475000D02*
X504854387Y-104475000D01*
X504854387Y-99855000D02*
X504854387Y-102165000D01*
X504854387Y-104475000D02*
X504854387Y-102165000D01*
X502249387Y-99065000D02*
X501919387Y-99305000D01*
X501919387Y-98825000D01*
X502249387Y-99065000D01*
G36*
X502249387Y-99065000D02*
G01*
X501919387Y-99305000D01*
X501919387Y-98825000D01*
X502249387Y-99065000D01*
G37*
%TO.C,D21*%
X464700387Y-191289000D02*
X468560387Y-191289000D01*
X464700387Y-193289000D02*
X468560387Y-193289000D01*
X468560387Y-193289000D02*
X468560387Y-191289000D01*
%TO.C,R21*%
X476493451Y-168232000D02*
X476039323Y-168232000D01*
X476493451Y-169702000D02*
X476039323Y-169702000D01*
%TO.C,U7*%
X474602387Y-99855000D02*
X474602387Y-102165000D01*
X474602387Y-104475000D02*
X474602387Y-102165000D01*
X474817387Y-99855000D02*
X474602387Y-99855000D01*
X474817387Y-104475000D02*
X474602387Y-104475000D01*
X477207387Y-99855000D02*
X477422387Y-99855000D01*
X477207387Y-104475000D02*
X477422387Y-104475000D01*
X477422387Y-99855000D02*
X477422387Y-102165000D01*
X477422387Y-104475000D02*
X477422387Y-102165000D01*
X474817387Y-99065000D02*
X474487387Y-99305000D01*
X474487387Y-98825000D01*
X474817387Y-99065000D01*
G36*
X474817387Y-99065000D02*
G01*
X474487387Y-99305000D01*
X474487387Y-98825000D01*
X474817387Y-99065000D01*
G37*
%TO.C,C6*%
X530663387Y-76209748D02*
X530663387Y-77632252D01*
X533383387Y-76209748D02*
X533383387Y-77632252D01*
%TO.C,R87*%
X470977064Y-30985000D02*
X470522936Y-30985000D01*
X470977064Y-29515000D02*
X470522936Y-29515000D01*
%TO.C,D4*%
X456350000Y-106750000D02*
X460210000Y-106750000D01*
X460210000Y-106750000D02*
X460210000Y-104750000D01*
X456350000Y-104750000D02*
X460210000Y-104750000D01*
%TO.C,R2*%
X463085323Y-158072000D02*
X463539451Y-158072000D01*
X463085323Y-159542000D02*
X463539451Y-159542000D01*
%TO.C,R57*%
X528244323Y-26656000D02*
X528698451Y-26656000D01*
X528244323Y-28126000D02*
X528698451Y-28126000D01*
%TO.C,R66*%
X464985000Y-13272936D02*
X464985000Y-13727064D01*
X463515000Y-13272936D02*
X463515000Y-13727064D01*
%TO.C,R25*%
X492803323Y-179154000D02*
X493257451Y-179154000D01*
X492803323Y-180624000D02*
X493257451Y-180624000D01*
%TO.C,R63*%
X460985000Y-13272936D02*
X460985000Y-13727064D01*
X459515000Y-13272936D02*
X459515000Y-13727064D01*
%TO.C,R44*%
X528244323Y-51396000D02*
X528698451Y-51396000D01*
X528244323Y-52866000D02*
X528698451Y-52866000D01*
%TO.C,D29*%
X525500387Y-44229000D02*
X521640387Y-44229000D01*
X521640387Y-42229000D02*
X521640387Y-44229000D01*
X525500387Y-42229000D02*
X521640387Y-42229000D01*
%TO.C,R8*%
X474105387Y-93756064D02*
X474105387Y-93301936D01*
X475575387Y-93756064D02*
X475575387Y-93301936D01*
%TO.C,R19*%
X460291387Y-56418064D02*
X460291387Y-55963936D01*
X461761387Y-56418064D02*
X461761387Y-55963936D01*
%TO.C,D18*%
X504536387Y-183207000D02*
X504536387Y-185207000D01*
X508396387Y-183207000D02*
X504536387Y-183207000D01*
X508396387Y-185207000D02*
X504536387Y-185207000D01*
%TO.C,R84*%
X508272936Y-10765000D02*
X508727064Y-10765000D01*
X508272936Y-12235000D02*
X508727064Y-12235000D01*
%TO.C,U27*%
X514936387Y-61393000D02*
X517246387Y-61393000D01*
X519556387Y-61393000D02*
X517246387Y-61393000D01*
X514936387Y-61178000D02*
X514936387Y-61393000D01*
X519556387Y-61178000D02*
X519556387Y-61393000D01*
X514936387Y-58788000D02*
X514936387Y-58573000D01*
X519556387Y-58788000D02*
X519556387Y-58573000D01*
X514936387Y-58573000D02*
X517246387Y-58573000D01*
X519556387Y-58573000D02*
X517246387Y-58573000D01*
X520346387Y-58788000D02*
X520106387Y-58458000D01*
X520586387Y-58458000D01*
X520346387Y-58788000D01*
G36*
X520346387Y-58788000D02*
G01*
X520106387Y-58458000D01*
X520586387Y-58458000D01*
X520346387Y-58788000D01*
G37*
%TO.C,U34*%
X514936387Y-23237000D02*
X517246387Y-23237000D01*
X519556387Y-23237000D02*
X517246387Y-23237000D01*
X514936387Y-23022000D02*
X514936387Y-23237000D01*
X519556387Y-23022000D02*
X519556387Y-23237000D01*
X514936387Y-20632000D02*
X514936387Y-20417000D01*
X519556387Y-20632000D02*
X519556387Y-20417000D01*
X514936387Y-20417000D02*
X517246387Y-20417000D01*
X519556387Y-20417000D02*
X517246387Y-20417000D01*
X520346387Y-20632000D02*
X520106387Y-20302000D01*
X520586387Y-20302000D01*
X520346387Y-20632000D01*
G36*
X520346387Y-20632000D02*
G01*
X520106387Y-20302000D01*
X520586387Y-20302000D01*
X520346387Y-20632000D01*
G37*
%TO.C,D9*%
X473802387Y-95577000D02*
X473802387Y-97577000D01*
X477662387Y-95577000D02*
X473802387Y-95577000D01*
X477662387Y-97577000D02*
X473802387Y-97577000D01*
%TO.C,R39*%
X528244323Y-53936000D02*
X528698451Y-53936000D01*
X528244323Y-55406000D02*
X528698451Y-55406000D01*
%TO.C,R80*%
X521477064Y-16985000D02*
X521022936Y-16985000D01*
X521477064Y-15515000D02*
X521022936Y-15515000D01*
%TO.C,C1*%
X530663387Y-101609748D02*
X530663387Y-103032252D01*
X533383387Y-101609748D02*
X533383387Y-103032252D01*
%TO.C,C5*%
X530663387Y-81289748D02*
X530663387Y-82712252D01*
X533383387Y-81289748D02*
X533383387Y-82712252D01*
%TO.C,D3*%
X459900000Y-42500000D02*
X456040000Y-42500000D01*
X456040000Y-42500000D02*
X456040000Y-44500000D01*
X459900000Y-44500000D02*
X456040000Y-44500000D01*
%TO.C,R31*%
X532373451Y-186520000D02*
X531919323Y-186520000D01*
X532373451Y-187990000D02*
X531919323Y-187990000D01*
%TO.C,R45*%
X531800323Y-48856000D02*
X532254451Y-48856000D01*
X531800323Y-50326000D02*
X532254451Y-50326000D01*
%TO.C,R76*%
X491272936Y-8015000D02*
X491727064Y-8015000D01*
X491272936Y-9485000D02*
X491727064Y-9485000D01*
%TO.C,R77*%
X491272936Y-10015000D02*
X491727064Y-10015000D01*
X491272936Y-11485000D02*
X491727064Y-11485000D01*
%TO.C,R24*%
X532373451Y-172804000D02*
X531919323Y-172804000D01*
X532373451Y-174274000D02*
X531919323Y-174274000D01*
%TO.C,C13*%
X510010000Y-8390580D02*
X510010000Y-8109420D01*
X508990000Y-8390580D02*
X508990000Y-8109420D01*
%TO.C,R1*%
X462577387Y-137190064D02*
X462577387Y-136735936D01*
X464047387Y-137190064D02*
X464047387Y-136735936D01*
%TO.C,R92*%
X459477064Y-37985000D02*
X459022936Y-37985000D01*
X459477064Y-36515000D02*
X459022936Y-36515000D01*
%TO.C,R88*%
X470977064Y-28985000D02*
X470522936Y-28985000D01*
X470977064Y-27515000D02*
X470522936Y-27515000D01*
%TO.C,R26*%
X531919323Y-170264000D02*
X532373451Y-170264000D01*
X531919323Y-171734000D02*
X532373451Y-171734000D01*
%TO.C,U3*%
X456684387Y-167303000D02*
X458994387Y-167303000D01*
X456684387Y-167518000D02*
X456684387Y-167303000D01*
X456684387Y-169908000D02*
X456684387Y-170123000D01*
X456684387Y-170123000D02*
X458994387Y-170123000D01*
X461304387Y-167303000D02*
X458994387Y-167303000D01*
X461304387Y-167518000D02*
X461304387Y-167303000D01*
X461304387Y-169908000D02*
X461304387Y-170123000D01*
X461304387Y-170123000D02*
X458994387Y-170123000D01*
X462094387Y-167518000D02*
X461854387Y-167188000D01*
X462334387Y-167188000D01*
X462094387Y-167518000D01*
G36*
X462094387Y-167518000D02*
G01*
X461854387Y-167188000D01*
X462334387Y-167188000D01*
X462094387Y-167518000D01*
G37*
%TO.C,R56*%
X528244323Y-29196000D02*
X528698451Y-29196000D01*
X528244323Y-30666000D02*
X528698451Y-30666000D01*
%TD*%
M02*
